<svg width="266" height="67" viewBox="0 0 266 67" fill="none" xmlns="http://www.w3.org/2000/svg">
<rect x="0.5" y="0.5" width="71.5" height="66" stroke="#005683"/>
<line y1="-0.5" x2="12.9781" y2="-0.5" transform="matrix(0.637649 0.770327 -0.623455 0.781859 16.0948 9)" stroke="#005683"/>
<line y1="-0.5" x2="12.9815" y2="-0.5" transform="matrix(0.637649 -0.770327 0.623461 0.781855 9 19)" stroke="#005683"/>
<line y1="-0.5" x2="12.9781" y2="-0.5" transform="matrix(0.637649 0.770327 -0.623455 0.781859 31.6689 9)" stroke="#005683"/>
<line y1="-0.5" x2="12.9815" y2="-0.5" transform="matrix(0.637649 -0.770327 0.623461 0.781855 24.5742 19)" stroke="#005683"/>
<line y1="-0.5" x2="12.9781" y2="-0.5" transform="matrix(0.637649 0.770327 -0.623455 0.781859 47.2432 9)" stroke="#005683"/>
<line y1="-0.5" x2="12.9815" y2="-0.5" transform="matrix(0.637649 -0.770327 0.623461 0.781855 40.1481 19)" stroke="#005683"/>
<line y1="-0.5" x2="12.9815" y2="-0.5" transform="matrix(0.637649 -0.770327 0.623461 0.781855 55.7224 19)" stroke="#005683"/>
<line y1="-0.5" x2="12.9781" y2="-0.5" transform="matrix(0.637649 0.770327 -0.623455 0.781859 16.0948 29)" stroke="#005683"/>
<line y1="-0.5" x2="12.9815" y2="-0.5" transform="matrix(0.637649 -0.770327 0.623461 0.781855 9 39)" stroke="#005683"/>
<line y1="-0.5" x2="12.9781" y2="-0.5" transform="matrix(0.637649 0.770327 -0.623455 0.781859 31.6689 29)" stroke="#005683"/>
<line y1="-0.5" x2="12.9815" y2="-0.5" transform="matrix(0.637649 -0.770327 0.623461 0.781855 24.5742 39)" stroke="#005683"/>
<line y1="-0.5" x2="12.9781" y2="-0.5" transform="matrix(0.637649 0.770327 -0.623455 0.781859 47.2432 29)" stroke="#005683"/>
<line y1="-0.5" x2="12.9815" y2="-0.5" transform="matrix(0.637649 -0.770327 0.623461 0.781855 40.1481 39)" stroke="#005683"/>
<line y1="-0.5" x2="12.9815" y2="-0.5" transform="matrix(0.637649 -0.770327 0.623461 0.781855 55.7224 39)" stroke="#005683"/>
<line y1="-0.5" x2="12.9781" y2="-0.5" transform="matrix(0.637649 0.770327 -0.623455 0.781859 16.0948 49)" stroke="#005683"/>
<line y1="-0.5" x2="12.9815" y2="-0.5" transform="matrix(0.637649 -0.770327 0.623461 0.781855 9 59)" stroke="#005683"/>
<line y1="-0.5" x2="12.9781" y2="-0.5" transform="matrix(0.637649 0.770327 -0.623455 0.781859 31.6689 49)" stroke="#005683"/>
<line y1="-0.5" x2="12.9815" y2="-0.5" transform="matrix(0.637649 -0.770327 0.623461 0.781855 24.5742 59)" stroke="#005683"/>
<line y1="-0.5" x2="12.9781" y2="-0.5" transform="matrix(0.637649 0.770327 -0.623455 0.781859 47.2432 49)" stroke="#005683"/>
<line y1="-0.5" x2="12.9815" y2="-0.5" transform="matrix(0.637649 -0.770327 0.623461 0.781855 40.1481 59)" stroke="#005683"/>
<line y1="-0.5" x2="12.9815" y2="-0.5" transform="matrix(0.637649 -0.770327 0.623461 0.781855 55.7224 59)" stroke="#005683"/>
<path d="M88.9588 18V9.27273H90.2756V13.0653H94.6264V9.27273H95.9474V18H94.6264V14.1946H90.2756V18H88.9588ZM100.028 18.1449C99.6128 18.1449 99.2378 18.0682 98.9026 17.9148C98.5674 17.7585 98.3018 17.5327 98.1057 17.2372C97.9126 16.9418 97.816 16.5795 97.816 16.1506C97.816 15.7812 97.887 15.4773 98.029 15.2386C98.1711 15 98.3628 14.8111 98.6043 14.6719C98.8458 14.5327 99.1157 14.4276 99.414 14.3565C99.7123 14.2855 100.016 14.2315 100.326 14.1946C100.718 14.1491 101.036 14.1122 101.28 14.0838C101.525 14.0526 101.702 14.0028 101.813 13.9347C101.924 13.8665 101.979 13.7557 101.979 13.6023V13.5724C101.979 13.2003 101.874 12.9119 101.664 12.7074C101.457 12.5028 101.147 12.4006 100.735 12.4006C100.306 12.4006 99.968 12.4957 99.7208 12.6861C99.4765 12.8736 99.3074 13.0824 99.2137 13.3125L98.0162 13.0398C98.1583 12.642 98.3657 12.321 98.6384 12.0767C98.914 11.8295 99.2307 11.6506 99.5887 11.5398C99.9466 11.4261 100.323 11.3693 100.718 11.3693C100.979 11.3693 101.256 11.4006 101.549 11.4631C101.844 11.5227 102.12 11.6335 102.376 11.7955C102.634 11.9574 102.846 12.1889 103.011 12.4901C103.175 12.7884 103.258 13.1761 103.258 13.6534V18H102.013V17.1051H101.962C101.88 17.2699 101.756 17.4318 101.592 17.5909C101.427 17.75 101.215 17.8821 100.957 17.9872C100.698 18.0923 100.388 18.1449 100.028 18.1449ZM100.305 17.1222C100.657 17.1222 100.958 17.0526 101.208 16.9134C101.461 16.7741 101.653 16.5923 101.783 16.3679C101.917 16.1406 101.984 15.8977 101.984 15.6392V14.7955C101.938 14.8409 101.85 14.8835 101.719 14.9233C101.592 14.9602 101.445 14.9929 101.28 15.0213C101.116 15.0469 100.955 15.071 100.799 15.0938C100.643 15.1136 100.512 15.1307 100.407 15.1449C100.16 15.1761 99.9339 15.2287 99.7293 15.3026C99.5276 15.3764 99.3657 15.483 99.2435 15.6222C99.1242 15.7585 99.0645 15.9403 99.0645 16.1676C99.0645 16.483 99.181 16.7216 99.414 16.8835C99.6469 17.0426 99.9438 17.1222 100.305 17.1222ZM110.654 11.4545V16.956H111.613V20.1094H110.356V18H105.315V11.4545H106.563V16.9006H109.41V11.4545H110.654ZM113.386 18V11.4545H114.66V18H113.386ZM114.029 10.4446C113.808 10.4446 113.617 10.3707 113.458 10.223C113.302 10.0724 113.224 9.89347 113.224 9.68608C113.224 9.47585 113.302 9.29687 113.458 9.14915C113.617 8.99858 113.808 8.9233 114.029 8.9233C114.251 8.9233 114.44 8.99858 114.596 9.14915C114.755 9.29687 114.835 9.47585 114.835 9.68608C114.835 9.89347 114.755 10.0724 114.596 10.223C114.44 10.3707 114.251 10.4446 114.029 10.4446ZM119.491 18.1321C118.878 18.1321 118.342 17.9915 117.885 17.7102C117.427 17.429 117.072 17.0355 116.819 16.5298C116.566 16.0241 116.44 15.4332 116.44 14.7571C116.44 14.0781 116.566 13.4844 116.819 12.9759C117.072 12.4673 117.427 12.0724 117.885 11.7912C118.342 11.5099 118.878 11.3693 119.491 11.3693C120.105 11.3693 120.64 11.5099 121.098 11.7912C121.555 12.0724 121.91 12.4673 122.163 12.9759C122.416 13.4844 122.542 14.0781 122.542 14.7571C122.542 15.4332 122.416 16.0241 122.163 16.5298C121.91 17.0355 121.555 17.429 121.098 17.7102C120.64 17.9915 120.105 18.1321 119.491 18.1321ZM119.495 17.0625C119.893 17.0625 120.223 16.9574 120.484 16.7472C120.745 16.5369 120.939 16.2571 121.064 15.9077C121.191 15.5582 121.255 15.1733 121.255 14.7528C121.255 14.3352 121.191 13.9517 121.064 13.6023C120.939 13.25 120.745 12.9673 120.484 12.7543C120.223 12.5412 119.893 12.4347 119.495 12.4347C119.095 12.4347 118.762 12.5412 118.498 12.7543C118.237 12.9673 118.042 13.25 117.914 13.6023C117.789 13.9517 117.727 14.3352 117.727 14.7528C117.727 15.1733 117.789 15.5582 117.914 15.9077C118.042 16.2571 118.237 16.5369 118.498 16.7472C118.762 16.9574 119.095 17.0625 119.495 17.0625ZM128.761 14.1776V15.2812H125.215V14.1776H128.761ZM125.573 11.4545V18H124.325V11.4545H125.573ZM129.651 11.4545V18H128.407V11.4545H129.651ZM133.621 18.1449C133.206 18.1449 132.831 18.0682 132.496 17.9148C132.16 17.7585 131.895 17.5327 131.699 17.2372C131.506 16.9418 131.409 16.5795 131.409 16.1506C131.409 15.7812 131.48 15.4773 131.622 15.2386C131.764 15 131.956 14.8111 132.197 14.6719C132.439 14.5327 132.709 14.4276 133.007 14.3565C133.305 14.2855 133.609 14.2315 133.919 14.1946C134.311 14.1491 134.629 14.1122 134.873 14.0838C135.118 14.0526 135.295 14.0028 135.406 13.9347C135.517 13.8665 135.572 13.7557 135.572 13.6023V13.5724C135.572 13.2003 135.467 12.9119 135.257 12.7074C135.05 12.5028 134.74 12.4006 134.328 12.4006C133.899 12.4006 133.561 12.4957 133.314 12.6861C133.069 12.8736 132.9 13.0824 132.807 13.3125L131.609 13.0398C131.751 12.642 131.959 12.321 132.231 12.0767C132.507 11.8295 132.824 11.6506 133.182 11.5398C133.54 11.4261 133.916 11.3693 134.311 11.3693C134.572 11.3693 134.849 11.4006 135.142 11.4631C135.437 11.5227 135.713 11.6335 135.969 11.7955C136.227 11.9574 136.439 12.1889 136.604 12.4901C136.768 12.7884 136.851 13.1761 136.851 13.6534V18H135.606V17.1051H135.555C135.473 17.2699 135.349 17.4318 135.185 17.5909C135.02 17.75 134.808 17.8821 134.55 17.9872C134.291 18.0923 133.981 18.1449 133.621 18.1449ZM133.898 17.1222C134.25 17.1222 134.551 17.0526 134.801 16.9134C135.054 16.7741 135.246 16.5923 135.376 16.3679C135.51 16.1406 135.577 15.8977 135.577 15.6392V14.7955C135.531 14.8409 135.443 14.8835 135.312 14.9233C135.185 14.9602 135.038 14.9929 134.873 15.0213C134.709 15.0469 134.548 15.071 134.392 15.0938C134.236 15.1136 134.105 15.1307 134 15.1449C133.753 15.1761 133.527 15.2287 133.322 15.3026C133.121 15.3764 132.959 15.483 132.836 15.6222C132.717 15.7585 132.658 15.9403 132.658 16.1676C132.658 16.483 132.774 16.7216 133.007 16.8835C133.24 17.0426 133.537 17.1222 133.898 17.1222ZM138.392 18L138.388 16.8963H138.622C138.804 16.8963 138.956 16.858 139.078 16.7812C139.203 16.7017 139.306 16.5682 139.385 16.3807C139.465 16.1932 139.526 15.9347 139.568 15.6051C139.611 15.2727 139.642 14.8551 139.662 14.3523L139.777 11.4545H144.345V18H143.097V12.554H140.958L140.855 14.7784C140.83 15.3182 140.774 15.7898 140.689 16.1932C140.607 16.5966 140.486 16.9332 140.327 17.2031C140.168 17.4702 139.963 17.6705 139.713 17.804C139.463 17.9347 139.159 18 138.801 18H138.392ZM147.363 13.7045H149.264C150.065 13.7045 150.681 13.9034 151.113 14.3011C151.545 14.6989 151.761 15.2116 151.761 15.8395C151.761 16.2486 151.664 16.6165 151.471 16.9432C151.278 17.2699 150.995 17.5284 150.623 17.7188C150.251 17.9062 149.798 18 149.264 18H146.405V11.4545H147.653V16.9006H149.264C149.63 16.9006 149.931 16.8054 150.167 16.6151C150.403 16.4219 150.521 16.1761 150.521 15.8778C150.521 15.5625 150.403 15.3054 150.167 15.1065C149.931 14.9048 149.63 14.804 149.264 14.804H147.363V13.7045ZM157.986 14.1776V15.2812H154.44V14.1776H157.986ZM154.798 11.4545V18H153.55V11.4545H154.798ZM158.876 11.4545V18H157.632V11.4545H158.876ZM162.189 16.2145L165.074 11.4545H166.447V18H165.198V13.2358L162.326 18H160.941V11.4545H162.189V16.2145ZM169.768 16.2145L172.653 11.4545H174.025V18H172.777V13.2358L169.905 18H168.52V11.4545H169.768V16.2145ZM172.108 9.23864H173.156C173.156 9.71875 172.986 10.1094 172.645 10.4105C172.307 10.7088 171.849 10.858 171.272 10.858C170.699 10.858 170.243 10.7088 169.905 10.4105C169.567 10.1094 169.397 9.71875 169.397 9.23864H170.442C170.442 9.4517 170.504 9.64062 170.629 9.8054C170.754 9.96733 170.969 10.0483 171.272 10.0483C171.571 10.0483 171.784 9.96733 171.912 9.8054C172.042 9.64347 172.108 9.45455 172.108 9.23864ZM180.44 20.4545C180.249 20.4545 180.076 20.4389 179.92 20.4077C179.763 20.3793 179.647 20.348 179.57 20.3139L179.877 19.2699C180.11 19.3324 180.317 19.3594 180.499 19.3509C180.681 19.3423 180.842 19.2741 180.981 19.1463C181.123 19.0185 181.248 18.8097 181.356 18.5199L181.513 18.0852L179.119 11.4545H180.482L182.14 16.5341H182.208L183.866 11.4545H185.234L182.536 18.8736C182.411 19.2145 182.252 19.5028 182.059 19.7386C181.866 19.9773 181.636 20.1563 181.369 20.2756C181.102 20.3949 180.792 20.4545 180.44 20.4545ZM191.227 14.1776V15.2812H187.682V14.1776H191.227ZM188.04 11.4545V18H186.791V11.4545H188.04ZM192.118 11.4545V18H190.873V11.4545H192.118ZM194.182 18V11.4545H195.456V18H194.182ZM194.826 10.4446C194.604 10.4446 194.414 10.3707 194.255 10.223C194.099 10.0724 194.02 9.89347 194.02 9.68608C194.02 9.47585 194.099 9.29687 194.255 9.14915C194.414 8.99858 194.604 8.9233 194.826 8.9233C195.047 8.9233 195.236 8.99858 195.393 9.14915C195.552 9.29687 195.631 9.47585 195.631 9.68608C195.631 9.89347 195.552 10.0724 195.393 10.223C195.236 10.3707 195.047 10.4446 194.826 10.4446ZM197.531 18V11.4545H200.245C200.984 11.4545 201.569 11.6122 202.001 11.9276C202.433 12.2401 202.648 12.6648 202.648 13.2017C202.648 13.5852 202.526 13.8892 202.282 14.1136C202.038 14.3381 201.714 14.4886 201.31 14.5653C201.603 14.5994 201.872 14.6875 202.116 14.8295C202.36 14.9687 202.556 15.1562 202.704 15.392C202.854 15.6278 202.93 15.9091 202.93 16.2358C202.93 16.5824 202.84 16.8892 202.661 17.1562C202.482 17.4205 202.222 17.6278 201.881 17.7784C201.543 17.9261 201.136 18 200.658 18H197.531ZM198.728 16.9347H200.658C200.974 16.9347 201.221 16.8594 201.4 16.7088C201.579 16.5582 201.668 16.3537 201.668 16.0952C201.668 15.7912 201.579 15.5526 201.4 15.3793C201.221 15.2031 200.974 15.1151 200.658 15.1151H198.728V16.9347ZM198.728 14.1818H200.258C200.497 14.1818 200.701 14.1477 200.872 14.0795C201.045 14.0114 201.177 13.9148 201.268 13.7898C201.362 13.6619 201.408 13.5114 201.408 13.3381C201.408 13.0852 201.305 12.8878 201.097 12.7457C200.89 12.6037 200.606 12.5327 200.245 12.5327H198.728V14.1818ZM207.508 18.1321C206.864 18.1321 206.308 17.9943 205.842 17.7188C205.379 17.4403 205.021 17.0497 204.768 16.5469C204.518 16.0412 204.393 15.4489 204.393 14.7699C204.393 14.0994 204.518 13.5085 204.768 12.9972C205.021 12.4858 205.374 12.0866 205.825 11.7997C206.28 11.5128 206.811 11.3693 207.419 11.3693C207.788 11.3693 208.146 11.4304 208.493 11.5526C208.839 11.6747 209.151 11.8665 209.426 12.1278C209.702 12.3892 209.919 12.7287 210.078 13.1463C210.237 13.5611 210.317 14.0653 210.317 14.6591V15.1108H205.114V14.1562H209.068C209.068 13.821 209 13.5241 208.864 13.2656C208.727 13.0043 208.535 12.7983 208.288 12.6477C208.044 12.4972 207.757 12.4219 207.428 12.4219C207.07 12.4219 206.757 12.5099 206.49 12.6861C206.226 12.8594 206.021 13.0866 205.876 13.3679C205.734 13.6463 205.663 13.9489 205.663 14.2756V15.0213C205.663 15.4588 205.74 15.831 205.893 16.1378C206.05 16.4446 206.267 16.679 206.545 16.8409C206.824 17 207.149 17.0795 207.521 17.0795C207.763 17.0795 207.983 17.0455 208.182 16.9773C208.381 16.9062 208.553 16.8011 208.697 16.6619C208.842 16.5227 208.953 16.3509 209.03 16.1463L210.236 16.3636C210.139 16.7187 209.966 17.0298 209.716 17.2969C209.469 17.5611 209.158 17.767 208.783 17.9148C208.41 18.0597 207.986 18.1321 207.508 18.1321ZM212.09 20.4545V11.4545H213.335V12.5156H213.441C213.515 12.3793 213.622 12.2216 213.761 12.0426C213.9 11.8636 214.093 11.7074 214.34 11.5739C214.588 11.4375 214.914 11.3693 215.321 11.3693C215.849 11.3693 216.321 11.5028 216.735 11.7699C217.15 12.0369 217.475 12.4219 217.711 12.9247C217.95 13.4276 218.069 14.0327 218.069 14.7401C218.069 15.4474 217.951 16.054 217.715 16.5597C217.48 17.0625 217.156 17.4503 216.744 17.723C216.332 17.9929 215.862 18.1278 215.333 18.1278C214.936 18.1278 214.61 18.0611 214.357 17.9276C214.107 17.794 213.911 17.6378 213.769 17.4588C213.627 17.2798 213.518 17.1207 213.441 16.9815H213.365V20.4545H212.09ZM213.339 14.7273C213.339 15.1875 213.406 15.5909 213.539 15.9375C213.673 16.2841 213.866 16.5554 214.119 16.7514C214.372 16.9446 214.681 17.0412 215.048 17.0412C215.429 17.0412 215.747 16.9403 216.002 16.7386C216.258 16.5341 216.451 16.2571 216.582 15.9077C216.715 15.5582 216.782 15.1648 216.782 14.7273C216.782 14.2955 216.717 13.9077 216.586 13.5639C216.458 13.2202 216.265 12.9489 216.007 12.75C215.751 12.5511 215.431 12.4517 215.048 12.4517C214.679 12.4517 214.366 12.5469 214.11 12.7372C213.857 12.9276 213.666 13.1932 213.535 13.5341C213.404 13.875 213.339 14.2727 213.339 14.7273ZM222.614 18.1321C221.98 18.1321 221.435 17.9886 220.977 17.7017C220.523 17.4119 220.173 17.0128 219.929 16.5043C219.685 15.9957 219.563 15.4134 219.563 14.7571C219.563 14.0923 219.688 13.5057 219.938 12.9972C220.188 12.4858 220.54 12.0866 220.994 11.7997C221.449 11.5128 221.985 11.3693 222.601 11.3693C223.098 11.3693 223.541 11.4616 223.931 11.6463C224.32 11.8281 224.634 12.0838 224.872 12.4134C225.114 12.7429 225.257 13.1278 225.303 13.5682H224.063C223.994 13.2614 223.838 12.9972 223.594 12.7756C223.352 12.554 223.029 12.4432 222.622 12.4432C222.267 12.4432 221.956 12.5369 221.689 12.7244C221.425 12.9091 221.219 13.1733 221.071 13.517C220.923 13.858 220.85 14.2614 220.85 14.7273C220.85 15.2045 220.922 15.6165 221.067 15.9631C221.212 16.3097 221.416 16.5781 221.681 16.7685C221.948 16.9588 222.262 17.054 222.622 17.054C222.864 17.054 223.083 17.0099 223.279 16.9219C223.477 16.831 223.644 16.7017 223.777 16.5341C223.914 16.3665 224.009 16.1648 224.063 15.929H225.303C225.257 16.3523 225.119 16.7301 224.889 17.0625C224.659 17.3949 224.351 17.6562 223.965 17.8466C223.581 18.0369 223.131 18.1321 222.614 18.1321ZM228.274 16.2145L231.159 11.4545H232.531V18H231.282V13.2358L228.41 18H227.025V11.4545H228.274V16.2145ZM233.792 12.554V11.4545H239.315V12.554H237.18V18H235.936V12.554H233.792ZM243.539 18.1321C242.894 18.1321 242.339 17.9943 241.873 17.7188C241.41 17.4403 241.052 17.0497 240.799 16.5469C240.549 16.0412 240.424 15.4489 240.424 14.7699C240.424 14.0994 240.549 13.5085 240.799 12.9972C241.052 12.4858 241.404 12.0866 241.856 11.7997C242.31 11.5128 242.842 11.3693 243.449 11.3693C243.819 11.3693 244.177 11.4304 244.523 11.5526C244.87 11.6747 245.181 11.8665 245.457 12.1278C245.732 12.3892 245.949 12.7287 246.109 13.1463C246.268 13.5611 246.347 14.0653 246.347 14.6591V15.1108H241.144V14.1562H245.099C245.099 13.821 245.03 13.5241 244.894 13.2656C244.758 13.0043 244.566 12.7983 244.319 12.6477C244.074 12.4972 243.788 12.4219 243.458 12.4219C243.1 12.4219 242.788 12.5099 242.52 12.6861C242.256 12.8594 242.052 13.0866 241.907 13.3679C241.765 13.6463 241.694 13.9489 241.694 14.2756V15.0213C241.694 15.4588 241.77 15.831 241.924 16.1378C242.08 16.4446 242.297 16.679 242.576 16.8409C242.854 17 243.18 17.0795 243.552 17.0795C243.793 17.0795 244.013 17.0455 244.212 16.9773C244.411 16.9062 244.583 16.8011 244.728 16.6619C244.873 16.5227 244.984 16.3509 245.06 16.1463L246.266 16.3636C246.17 16.7187 245.996 17.0298 245.746 17.2969C245.499 17.5611 245.188 17.767 244.813 17.9148C244.441 18.0597 244.016 18.1321 243.539 18.1321ZM247.543 12.554V11.4545H253.066V12.554H250.931V18H249.687V12.554H247.543ZM88.8565 38V31.4545H91.571C92.3097 31.4545 92.8949 31.6122 93.3267 31.9276C93.7585 32.2401 93.9744 32.6648 93.9744 33.2017C93.9744 33.5852 93.8523 33.8892 93.608 34.1136C93.3636 34.3381 93.0398 34.4886 92.6364 34.5653C92.929 34.5994 93.1974 34.6875 93.4418 34.8295C93.6861 34.9687 93.8821 35.1562 94.0298 35.392C94.1804 35.6278 94.2557 35.9091 94.2557 36.2358C94.2557 36.5824 94.1662 36.8892 93.9872 37.1562C93.8082 37.4205 93.5483 37.6278 93.2074 37.7784C92.8693 37.9261 92.4616 38 91.9844 38H88.8565ZM90.054 36.9347H91.9844C92.2997 36.9347 92.5469 36.8594 92.7259 36.7088C92.9048 36.5582 92.9943 36.3537 92.9943 36.0952C92.9943 35.7912 92.9048 35.5526 92.7259 35.3793C92.5469 35.2031 92.2997 35.1151 91.9844 35.1151H90.054V36.9347ZM90.054 34.1818H91.5838C91.8224 34.1818 92.027 34.1477 92.1974 34.0795C92.3707 34.0114 92.5028 33.9148 92.5938 33.7898C92.6875 33.6619 92.7344 33.5114 92.7344 33.3381C92.7344 33.0852 92.6307 32.8878 92.4233 32.7457C92.2159 32.6037 91.9318 32.5327 91.571 32.5327H90.054V34.1818ZM98.7705 38.1321C98.1569 38.1321 97.6214 37.9915 97.164 37.7102C96.7066 37.429 96.3515 37.0355 96.0986 36.5298C95.8458 36.0241 95.7194 35.4332 95.7194 34.7571C95.7194 34.0781 95.8458 33.4844 96.0986 32.9759C96.3515 32.4673 96.7066 32.0724 97.164 31.7912C97.6214 31.5099 98.1569 31.3693 98.7705 31.3693C99.3841 31.3693 99.9197 31.5099 100.377 31.7912C100.834 32.0724 101.19 32.4673 101.442 32.9759C101.695 33.4844 101.822 34.0781 101.822 34.7571C101.822 35.4332 101.695 36.0241 101.442 36.5298C101.19 37.0355 100.834 37.429 100.377 37.7102C99.9197 37.9915 99.3841 38.1321 98.7705 38.1321ZM98.7748 37.0625C99.1725 37.0625 99.502 36.9574 99.7634 36.7472C100.025 36.5369 100.218 36.2571 100.343 35.9077C100.471 35.5582 100.535 35.1733 100.535 34.7528C100.535 34.3352 100.471 33.9517 100.343 33.6023C100.218 33.25 100.025 32.9673 99.7634 32.7543C99.502 32.5412 99.1725 32.4347 98.7748 32.4347C98.3742 32.4347 98.0418 32.5412 97.7776 32.7543C97.5163 32.9673 97.3216 33.25 97.1938 33.6023C97.0688 33.9517 97.0063 34.3352 97.0063 34.7528C97.0063 35.1733 97.0688 35.5582 97.1938 35.9077C97.3216 36.2571 97.5163 36.5369 97.7776 36.7472C98.0418 36.9574 98.3742 37.0625 98.7748 37.0625ZM102.965 39.8878V36.8963H103.497C103.634 36.7713 103.749 36.6222 103.843 36.4489C103.939 36.2756 104.02 36.0696 104.085 35.831C104.154 35.5923 104.21 35.3139 104.256 34.9957C104.301 34.6747 104.341 34.3082 104.375 33.8963L104.58 31.4545H109.029V36.8963H110.034V39.8878H108.79V38H104.226V39.8878H102.965ZM104.861 36.8963H107.784V32.5455H105.722L105.585 33.8963C105.52 34.5838 105.438 35.1804 105.338 35.6861C105.239 36.1889 105.08 36.5923 104.861 36.8963ZM116.076 34.1776V35.2812H112.53V34.1776H116.076ZM112.888 31.4545V38H111.64V31.4545H112.888ZM116.966 31.4545V38H115.722V31.4545H116.966ZM121.788 38.1321C121.174 38.1321 120.639 37.9915 120.181 37.7102C119.724 37.429 119.369 37.0355 119.116 36.5298C118.863 36.0241 118.737 35.4332 118.737 34.7571C118.737 34.0781 118.863 33.4844 119.116 32.9759C119.369 32.4673 119.724 32.0724 120.181 31.7912C120.639 31.5099 121.174 31.3693 121.788 31.3693C122.402 31.3693 122.937 31.5099 123.395 31.7912C123.852 32.0724 124.207 32.4673 124.46 32.9759C124.713 33.4844 124.839 34.0781 124.839 34.7571C124.839 35.4332 124.713 36.0241 124.46 36.5298C124.207 37.0355 123.852 37.429 123.395 37.7102C122.937 37.9915 122.402 38.1321 121.788 38.1321ZM121.792 37.0625C122.19 37.0625 122.52 36.9574 122.781 36.7472C123.042 36.5369 123.235 36.2571 123.36 35.9077C123.488 35.5582 123.552 35.1733 123.552 34.7528C123.552 34.3352 123.488 33.9517 123.36 33.6023C123.235 33.25 123.042 32.9673 122.781 32.7543C122.52 32.5412 122.19 32.4347 121.792 32.4347C121.392 32.4347 121.059 32.5412 120.795 32.7543C120.534 32.9673 120.339 33.25 120.211 33.6023C120.086 33.9517 120.024 34.3352 120.024 34.7528C120.024 35.1733 120.086 35.5582 120.211 35.9077C120.339 36.2571 120.534 36.5369 120.795 36.7472C121.059 36.9574 121.392 37.0625 121.792 37.0625ZM130.806 31.4545V32.554H127.878V38H126.621V31.4545H130.806ZM134.965 38.1321C134.351 38.1321 133.816 37.9915 133.359 37.7102C132.901 37.429 132.546 37.0355 132.293 36.5298C132.04 36.0241 131.914 35.4332 131.914 34.7571C131.914 34.0781 132.04 33.4844 132.293 32.9759C132.546 32.4673 132.901 32.0724 133.359 31.7912C133.816 31.5099 134.351 31.3693 134.965 31.3693C135.579 31.3693 136.114 31.5099 136.572 31.7912C137.029 32.0724 137.384 32.4673 137.637 32.9759C137.89 33.4844 138.016 34.0781 138.016 34.7571C138.016 35.4332 137.89 36.0241 137.637 36.5298C137.384 37.0355 137.029 37.429 136.572 37.7102C136.114 37.9915 135.579 38.1321 134.965 38.1321ZM134.969 37.0625C135.367 37.0625 135.697 36.9574 135.958 36.7472C136.219 36.5369 136.412 36.2571 136.537 35.9077C136.665 35.5582 136.729 35.1733 136.729 34.7528C136.729 34.3352 136.665 33.9517 136.537 33.6023C136.412 33.25 136.219 32.9673 135.958 32.7543C135.697 32.5412 135.367 32.4347 134.969 32.4347C134.569 32.4347 134.236 32.5412 133.972 32.7543C133.711 32.9673 133.516 33.25 133.388 33.6023C133.263 33.9517 133.201 34.3352 133.201 34.7528C133.201 35.1733 133.263 35.5582 133.388 35.9077C133.516 36.2571 133.711 36.5369 133.972 36.7472C134.236 36.9574 134.569 37.0625 134.969 37.0625ZM147.519 31.4545V32.554H144.591V38H143.334V31.4545H147.519ZM151.678 38.1321C151.064 38.1321 150.529 37.9915 150.071 37.7102C149.614 37.429 149.259 37.0355 149.006 36.5298C148.753 36.0241 148.627 35.4332 148.627 34.7571C148.627 34.0781 148.753 33.4844 149.006 32.9759C149.259 32.4673 149.614 32.0724 150.071 31.7912C150.529 31.5099 151.064 31.3693 151.678 31.3693C152.291 31.3693 152.827 31.5099 153.284 31.7912C153.742 32.0724 154.097 32.4673 154.35 32.9759C154.603 33.4844 154.729 34.0781 154.729 34.7571C154.729 35.4332 154.603 36.0241 154.35 36.5298C154.097 37.0355 153.742 37.429 153.284 37.7102C152.827 37.9915 152.291 38.1321 151.678 38.1321ZM151.682 37.0625C152.08 37.0625 152.409 36.9574 152.671 36.7472C152.932 36.5369 153.125 36.2571 153.25 35.9077C153.378 35.5582 153.442 35.1733 153.442 34.7528C153.442 34.3352 153.378 33.9517 153.25 33.6023C153.125 33.25 152.932 32.9673 152.671 32.7543C152.409 32.5412 152.08 32.4347 151.682 32.4347C151.282 32.4347 150.949 32.5412 150.685 32.7543C150.424 32.9673 150.229 33.25 150.101 33.6023C149.976 33.9517 149.914 34.3352 149.914 34.7528C149.914 35.1733 149.976 35.5582 150.101 35.9077C150.229 36.2571 150.424 36.5369 150.685 36.7472C150.949 36.9574 151.282 37.0625 151.682 37.0625ZM159.268 38.1321C158.635 38.1321 158.089 37.9886 157.632 37.7017C157.177 37.4119 156.828 37.0128 156.584 36.5043C156.339 35.9957 156.217 35.4134 156.217 34.7571C156.217 34.0923 156.342 33.5057 156.592 32.9972C156.842 32.4858 157.194 32.0866 157.649 31.7997C158.104 31.5128 158.639 31.3693 159.256 31.3693C159.753 31.3693 160.196 31.4616 160.585 31.6463C160.974 31.8281 161.288 32.0838 161.527 32.4134C161.768 32.7429 161.912 33.1278 161.957 33.5682H160.717C160.649 33.2614 160.493 32.9972 160.248 32.7756C160.007 32.554 159.683 32.4432 159.277 32.4432C158.922 32.4432 158.611 32.5369 158.344 32.7244C158.079 32.9091 157.873 33.1733 157.726 33.517C157.578 33.858 157.504 34.2614 157.504 34.7273C157.504 35.2045 157.577 35.6165 157.721 35.9631C157.866 36.3097 158.071 36.5781 158.335 36.7685C158.602 36.9588 158.916 37.054 159.277 37.054C159.518 37.054 159.737 37.0099 159.933 36.9219C160.132 36.831 160.298 36.7017 160.432 36.5341C160.568 36.3665 160.663 36.1648 160.717 35.929H161.957C161.912 36.3523 161.774 36.7301 161.544 37.0625C161.314 37.3949 161.006 37.6562 160.619 37.8466C160.236 38.0369 159.785 38.1321 159.268 38.1321ZM163.68 38V31.4545H169.019V38H167.771V32.554H164.92V38H163.68ZM173.84 38.1321C173.226 38.1321 172.691 37.9915 172.233 37.7102C171.776 37.429 171.421 37.0355 171.168 36.5298C170.915 36.0241 170.789 35.4332 170.789 34.7571C170.789 34.0781 170.915 33.4844 171.168 32.9759C171.421 32.4673 171.776 32.0724 172.233 31.7912C172.691 31.5099 173.226 31.3693 173.84 31.3693C174.454 31.3693 174.989 31.5099 175.446 31.7912C175.904 32.0724 176.259 32.4673 176.512 32.9759C176.765 33.4844 176.891 34.0781 176.891 34.7571C176.891 35.4332 176.765 36.0241 176.512 36.5298C176.259 37.0355 175.904 37.429 175.446 37.7102C174.989 37.9915 174.454 38.1321 173.84 38.1321ZM173.844 37.0625C174.242 37.0625 174.571 36.9574 174.833 36.7472C175.094 36.5369 175.287 36.2571 175.412 35.9077C175.54 35.5582 175.604 35.1733 175.604 34.7528C175.604 34.3352 175.54 33.9517 175.412 33.6023C175.287 33.25 175.094 32.9673 174.833 32.7543C174.571 32.5412 174.242 32.4347 173.844 32.4347C173.444 32.4347 173.111 32.5412 172.847 32.7543C172.586 32.9673 172.391 33.25 172.263 33.6023C172.138 33.9517 172.076 34.3352 172.076 34.7528C172.076 35.1733 172.138 35.5582 172.263 35.9077C172.391 36.2571 172.586 36.5369 172.847 36.7472C173.111 36.9574 173.444 37.0625 173.844 37.0625ZM178.034 39.8878V36.8963H178.567C178.703 36.7713 178.818 36.6222 178.912 36.4489C179.008 36.2756 179.089 36.0696 179.155 35.831C179.223 35.5923 179.28 35.3139 179.325 34.9957C179.371 34.6747 179.41 34.3082 179.445 33.8963L179.649 31.4545H184.098V36.8963H185.104V39.8878H183.859V38H179.295V39.8878H178.034ZM179.93 36.8963H182.854V32.5455H180.791L180.655 33.8963C180.589 34.5838 180.507 35.1804 180.408 35.6861C180.308 36.1889 180.149 36.5923 179.93 36.8963ZM188.614 38.1449C188.199 38.1449 187.824 38.0682 187.489 37.9148C187.154 37.7585 186.888 37.5327 186.692 37.2372C186.499 36.9418 186.402 36.5795 186.402 36.1506C186.402 35.7812 186.473 35.4773 186.615 35.2386C186.757 35 186.949 34.8111 187.191 34.6719C187.432 34.5327 187.702 34.4276 188 34.3565C188.299 34.2855 188.603 34.2315 188.912 34.1946C189.304 34.1491 189.622 34.1122 189.867 34.0838C190.111 34.0526 190.289 34.0028 190.399 33.9347C190.51 33.8665 190.566 33.7557 190.566 33.6023V33.5724C190.566 33.2003 190.46 32.9119 190.25 32.7074C190.043 32.5028 189.733 32.4006 189.321 32.4006C188.892 32.4006 188.554 32.4957 188.307 32.6861C188.063 32.8736 187.894 33.0824 187.8 33.3125L186.603 33.0398C186.745 32.642 186.952 32.321 187.225 32.0767C187.5 31.8295 187.817 31.6506 188.175 31.5398C188.533 31.4261 188.909 31.3693 189.304 31.3693C189.566 31.3693 189.843 31.4006 190.135 31.4631C190.431 31.5227 190.706 31.6335 190.962 31.7955C191.22 31.9574 191.432 32.1889 191.597 32.4901C191.762 32.7884 191.844 33.1761 191.844 33.6534V38H190.6V37.1051H190.549C190.466 37.2699 190.343 37.4318 190.178 37.5909C190.013 37.75 189.801 37.8821 189.543 37.9872C189.284 38.0923 188.975 38.1449 188.614 38.1449ZM188.891 37.1222C189.243 37.1222 189.544 37.0526 189.794 36.9134C190.047 36.7741 190.239 36.5923 190.37 36.3679C190.503 36.1406 190.57 35.8977 190.57 35.6392V34.7955C190.524 34.8409 190.436 34.8835 190.306 34.9233C190.178 34.9602 190.031 34.9929 189.867 35.0213C189.702 35.0469 189.541 35.071 189.385 35.0938C189.229 35.1136 189.098 35.1307 188.993 35.1449C188.746 35.1761 188.52 35.2287 188.316 35.3026C188.114 35.3764 187.952 35.483 187.83 35.6222C187.71 35.7585 187.651 35.9403 187.651 36.1676C187.651 36.483 187.767 36.7216 188 36.8835C188.233 37.0426 188.53 37.1222 188.891 37.1222ZM193.901 40.4545V31.4545H195.145V32.5156H195.252C195.326 32.3793 195.432 32.2216 195.572 32.0426C195.711 31.8636 195.904 31.7074 196.151 31.5739C196.398 31.4375 196.725 31.3693 197.131 31.3693C197.66 31.3693 198.131 31.5028 198.546 31.7699C198.961 32.0369 199.286 32.4219 199.522 32.9247C199.76 33.4276 199.88 34.0327 199.88 34.7401C199.88 35.4474 199.762 36.054 199.526 36.5597C199.29 37.0625 198.966 37.4503 198.554 37.723C198.143 37.9929 197.672 38.1278 197.144 38.1278C196.746 38.1278 196.421 38.0611 196.168 37.9276C195.918 37.794 195.722 37.6378 195.58 37.4588C195.438 37.2798 195.329 37.1207 195.252 36.9815H195.175V40.4545H193.901ZM195.15 34.7273C195.15 35.1875 195.216 35.5909 195.35 35.9375C195.483 36.2841 195.677 36.5554 195.929 36.7514C196.182 36.9446 196.492 37.0412 196.858 37.0412C197.239 37.0412 197.557 36.9403 197.813 36.7386C198.069 36.5341 198.262 36.2571 198.393 35.9077C198.526 35.5582 198.593 35.1648 198.593 34.7273C198.593 34.2955 198.527 33.9077 198.397 33.5639C198.269 33.2202 198.076 32.9489 197.817 32.75C197.562 32.5511 197.242 32.4517 196.858 32.4517C196.489 32.4517 196.177 32.5469 195.921 32.7372C195.668 32.9276 195.476 33.1932 195.346 33.5341C195.215 33.875 195.15 34.2727 195.15 34.7273ZM204.424 38.1321C203.791 38.1321 203.245 37.9886 202.788 37.7017C202.334 37.4119 201.984 37.0128 201.74 36.5043C201.495 35.9957 201.373 35.4134 201.373 34.7571C201.373 34.0923 201.498 33.5057 201.748 32.9972C201.998 32.4858 202.351 32.0866 202.805 31.7997C203.26 31.5128 203.795 31.3693 204.412 31.3693C204.909 31.3693 205.352 31.4616 205.741 31.6463C206.13 31.8281 206.444 32.0838 206.683 32.4134C206.924 32.7429 207.068 33.1278 207.113 33.5682H205.873C205.805 33.2614 205.649 32.9972 205.405 32.7756C205.163 32.554 204.839 32.4432 204.433 32.4432C204.078 32.4432 203.767 32.5369 203.5 32.7244C203.235 32.9091 203.03 33.1733 202.882 33.517C202.734 33.858 202.66 34.2614 202.66 34.7273C202.66 35.2045 202.733 35.6165 202.878 35.9631C203.022 36.3097 203.227 36.5781 203.491 36.7685C203.758 36.9588 204.072 37.054 204.433 37.054C204.674 37.054 204.893 37.0099 205.089 36.9219C205.288 36.831 205.454 36.7017 205.588 36.5341C205.724 36.3665 205.819 36.1648 205.873 35.929H207.113C207.068 36.3523 206.93 36.7301 206.7 37.0625C206.47 37.3949 206.162 37.6562 205.775 37.8466C205.392 38.0369 204.941 38.1321 204.424 38.1321ZM208.341 32.554V31.4545H213.863V32.554H211.728V38H210.484V32.554H208.341ZM215.571 38V31.4545H218.285C219.024 31.4545 219.609 31.6122 220.041 31.9276C220.473 32.2401 220.689 32.6648 220.689 33.2017C220.689 33.5852 220.567 33.8892 220.322 34.1136C220.078 34.3381 219.754 34.4886 219.351 34.5653C219.643 34.5994 219.912 34.6875 220.156 34.8295C220.4 34.9687 220.596 35.1562 220.744 35.392C220.895 35.6278 220.97 35.9091 220.97 36.2358C220.97 36.5824 220.881 36.8892 220.702 37.1562C220.523 37.4205 220.263 37.6278 219.922 37.7784C219.584 37.9261 219.176 38 218.699 38H215.571ZM216.768 36.9347H218.699C219.014 36.9347 219.261 36.8594 219.44 36.7088C219.619 36.5582 219.709 36.3537 219.709 36.0952C219.709 35.7912 219.619 35.5526 219.44 35.3793C219.261 35.2031 219.014 35.1151 218.699 35.1151H216.768V36.9347ZM216.768 34.1818H218.298C218.537 34.1818 218.741 34.1477 218.912 34.0795C219.085 34.0114 219.217 33.9148 219.308 33.7898C219.402 33.6619 219.449 33.5114 219.449 33.3381C219.449 33.0852 219.345 32.8878 219.138 32.7457C218.93 32.6037 218.646 32.5327 218.285 32.5327H216.768V34.1818ZM224.633 38.1449C224.218 38.1449 223.843 38.0682 223.508 37.9148C223.172 37.7585 222.907 37.5327 222.711 37.2372C222.518 36.9418 222.421 36.5795 222.421 36.1506C222.421 35.7812 222.492 35.4773 222.634 35.2386C222.776 35 222.968 34.8111 223.209 34.6719C223.451 34.5327 223.721 34.4276 224.019 34.3565C224.317 34.2855 224.621 34.2315 224.931 34.1946C225.323 34.1491 225.641 34.1122 225.885 34.0838C226.13 34.0526 226.307 34.0028 226.418 33.9347C226.529 33.8665 226.584 33.7557 226.584 33.6023V33.5724C226.584 33.2003 226.479 32.9119 226.269 32.7074C226.062 32.5028 225.752 32.4006 225.34 32.4006C224.911 32.4006 224.573 32.4957 224.326 32.6861C224.081 32.8736 223.912 33.0824 223.819 33.3125L222.621 33.0398C222.763 32.642 222.971 32.321 223.243 32.0767C223.519 31.8295 223.836 31.6506 224.194 31.5398C224.552 31.4261 224.928 31.3693 225.323 31.3693C225.584 31.3693 225.861 31.4006 226.154 31.4631C226.449 31.5227 226.725 31.6335 226.981 31.7955C227.239 31.9574 227.451 32.1889 227.616 32.4901C227.78 32.7884 227.863 33.1761 227.863 33.6534V38H226.618V37.1051H226.567C226.485 37.2699 226.361 37.4318 226.197 37.5909C226.032 37.75 225.82 37.8821 225.562 37.9872C225.303 38.0923 224.993 38.1449 224.633 38.1449ZM224.91 37.1222C225.262 37.1222 225.563 37.0526 225.813 36.9134C226.066 36.7741 226.258 36.5923 226.388 36.3679C226.522 36.1406 226.589 35.8977 226.589 35.6392V34.7955C226.543 34.8409 226.455 34.8835 226.324 34.9233C226.197 34.9602 226.05 34.9929 225.885 35.0213C225.721 35.0469 225.56 35.071 225.404 35.0938C225.248 35.1136 225.117 35.1307 225.012 35.1449C224.765 35.1761 224.539 35.2287 224.334 35.3026C224.133 35.3764 223.971 35.483 223.849 35.6222C223.729 35.7585 223.67 35.9403 223.67 36.1676C223.67 36.483 223.786 36.7216 224.019 36.8835C224.252 37.0426 224.549 37.1222 224.91 37.1222ZM88.4901 52.554V51.4545H94.0128V52.554H91.8778V58H90.6335V52.554H88.4901ZM97.3206 58.1449C96.9058 58.1449 96.5308 58.0682 96.1956 57.9148C95.8604 57.7585 95.5947 57.5327 95.3987 57.2372C95.2055 56.9418 95.1089 56.5795 95.1089 56.1506C95.1089 55.7812 95.18 55.4773 95.322 55.2386C95.464 55 95.6558 54.8111 95.8973 54.6719C96.1388 54.5327 96.4087 54.4276 96.7069 54.3565C97.0052 54.2855 97.3092 54.2315 97.6189 54.1946C98.0109 54.1491 98.3291 54.1122 98.5734 54.0838C98.8177 54.0526 98.9953 54.0028 99.1061 53.9347C99.2169 53.8665 99.2723 53.7557 99.2723 53.6023V53.5724C99.2723 53.2003 99.1672 52.9119 98.9569 52.7074C98.7496 52.5028 98.4399 52.4006 98.028 52.4006C97.599 52.4006 97.2609 52.4957 97.0138 52.6861C96.7694 52.8736 96.6004 53.0824 96.5067 53.3125L95.3092 53.0398C95.4513 52.642 95.6587 52.321 95.9314 52.0767C96.2069 51.8295 96.5237 51.6506 96.8817 51.5398C97.2396 51.4261 97.616 51.3693 98.0109 51.3693C98.2723 51.3693 98.5493 51.4006 98.8419 51.4631C99.1373 51.5227 99.4129 51.6335 99.6686 51.7955C99.9271 51.9574 100.139 52.1889 100.304 52.4901C100.468 52.7884 100.551 53.1761 100.551 53.6534V58H99.3064V57.1051H99.2552C99.1729 57.2699 99.0493 57.4318 98.8845 57.5909C98.7197 57.75 98.5081 57.8821 98.2496 57.9872C97.991 58.0923 97.6814 58.1449 97.3206 58.1449ZM97.5976 57.1222C97.9498 57.1222 98.251 57.0526 98.501 56.9134C98.7538 56.7741 98.9456 56.5923 99.0763 56.3679C99.2098 56.1406 99.2765 55.8977 99.2765 55.6392V54.7955C99.2311 54.8409 99.143 54.8835 99.0123 54.9233C98.8845 54.9602 98.7382 54.9929 98.5734 55.0213C98.4087 55.0469 98.2481 55.071 98.0919 55.0938C97.9356 55.1136 97.805 55.1307 97.6998 55.1449C97.4527 55.1761 97.2268 55.2287 97.0223 55.3026C96.8206 55.3764 96.6587 55.483 96.5365 55.6222C96.4172 55.7585 96.3575 55.9403 96.3575 56.1676C96.3575 56.483 96.474 56.7216 96.7069 56.8835C96.9399 57.0426 97.2368 57.1222 97.5976 57.1222ZM106.144 58V51.4545H111.483V58H110.234V52.554H107.384V58H106.144ZM113.547 60.4545V51.4545H114.791V52.5156H114.897C114.971 52.3793 115.078 52.2216 115.217 52.0426C115.356 51.8636 115.549 51.7074 115.797 51.5739C116.044 51.4375 116.37 51.3693 116.777 51.3693C117.305 51.3693 117.777 51.5028 118.191 51.7699C118.606 52.0369 118.931 52.4219 119.167 52.9247C119.406 53.4276 119.525 54.0327 119.525 54.7401C119.525 55.4474 119.407 56.054 119.172 56.5597C118.936 57.0625 118.612 57.4503 118.2 57.723C117.788 57.9929 117.318 58.1278 116.789 58.1278C116.392 58.1278 116.066 58.0611 115.814 57.9276C115.564 57.794 115.368 57.6378 115.226 57.4588C115.083 57.2798 114.974 57.1207 114.897 56.9815H114.821V60.4545H113.547ZM114.795 54.7273C114.795 55.1875 114.862 55.5909 114.995 55.9375C115.129 56.2841 115.322 56.5554 115.575 56.7514C115.828 56.9446 116.137 57.0412 116.504 57.0412C116.885 57.0412 117.203 56.9403 117.458 56.7386C117.714 56.5341 117.907 56.2571 118.038 55.9077C118.172 55.5582 118.238 55.1648 118.238 54.7273C118.238 54.2955 118.173 53.9077 118.042 53.5639C117.914 53.2202 117.721 52.9489 117.463 52.75C117.207 52.5511 116.887 52.4517 116.504 52.4517C116.135 52.4517 115.822 52.5469 115.566 52.7372C115.314 52.9276 115.122 53.1932 114.991 53.5341C114.86 53.875 114.795 54.2727 114.795 54.7273ZM122.561 56.2145L125.446 51.4545H126.818V58H125.57V53.2358L122.698 58H121.313V51.4545H122.561V56.2145ZM128.892 60.4545V51.4545H130.136V52.5156H130.242C130.316 52.3793 130.423 52.2216 130.562 52.0426C130.701 51.8636 130.894 51.7074 131.142 51.5739C131.389 51.4375 131.715 51.3693 132.122 51.3693C132.65 51.3693 133.122 51.5028 133.536 51.7699C133.951 52.0369 134.276 52.4219 134.512 52.9247C134.751 53.4276 134.87 54.0327 134.87 54.7401C134.87 55.4474 134.752 56.054 134.517 56.5597C134.281 57.0625 133.957 57.4503 133.545 57.723C133.133 57.9929 132.663 58.1278 132.134 58.1278C131.737 58.1278 131.411 58.0611 131.159 57.9276C130.909 57.794 130.713 57.6378 130.571 57.4588C130.428 57.2798 130.319 57.1207 130.242 56.9815H130.166V60.4545H128.892ZM130.14 54.7273C130.14 55.1875 130.207 55.5909 130.34 55.9375C130.474 56.2841 130.667 56.5554 130.92 56.7514C131.173 56.9446 131.482 57.0412 131.849 57.0412C132.23 57.0412 132.548 56.9403 132.803 56.7386C133.059 56.5341 133.252 56.2571 133.383 55.9077C133.517 55.5582 133.583 55.1648 133.583 54.7273C133.583 54.2955 133.518 53.9077 133.387 53.5639C133.259 53.2202 133.066 52.9489 132.808 52.75C132.552 52.5511 132.232 52.4517 131.849 52.4517C131.48 52.4517 131.167 52.5469 130.911 52.7372C130.659 52.9276 130.467 53.1932 130.336 53.5341C130.205 53.875 130.14 54.2727 130.14 54.7273ZM139.415 58.1321C138.801 58.1321 138.266 57.9915 137.808 57.7102C137.351 57.429 136.996 57.0355 136.743 56.5298C136.49 56.0241 136.364 55.4332 136.364 54.7571C136.364 54.0781 136.49 53.4844 136.743 52.9759C136.996 52.4673 137.351 52.0724 137.808 51.7912C138.266 51.5099 138.801 51.3693 139.415 51.3693C140.029 51.3693 140.564 51.5099 141.021 51.7912C141.479 52.0724 141.834 52.4673 142.087 52.9759C142.34 53.4844 142.466 54.0781 142.466 54.7571C142.466 55.4332 142.34 56.0241 142.087 56.5298C141.834 57.0355 141.479 57.429 141.021 57.7102C140.564 57.9915 140.029 58.1321 139.415 58.1321ZM139.419 57.0625C139.817 57.0625 140.146 56.9574 140.408 56.7472C140.669 56.5369 140.862 56.2571 140.987 55.9077C141.115 55.5582 141.179 55.1733 141.179 54.7528C141.179 54.3352 141.115 53.9517 140.987 53.6023C140.862 53.25 140.669 52.9673 140.408 52.7543C140.146 52.5412 139.817 52.4347 139.419 52.4347C139.019 52.4347 138.686 52.5412 138.422 52.7543C138.161 52.9673 137.966 53.25 137.838 53.6023C137.713 53.9517 137.651 54.3352 137.651 54.7528C137.651 55.1733 137.713 55.5582 137.838 55.9077C137.966 56.2571 138.161 56.5369 138.422 56.7472C138.686 56.9574 139.019 57.0625 139.419 57.0625ZM143.609 59.8878V56.8963H144.142C144.278 56.7713 144.393 56.6222 144.487 56.4489C144.583 56.2756 144.664 56.0696 144.73 55.831C144.798 55.5923 144.855 55.3139 144.9 54.9957C144.946 54.6747 144.985 54.3082 145.02 53.8963L145.224 51.4545H149.673V56.8963H150.679V59.8878H149.434V58H144.87V59.8878H143.609ZM145.505 56.8963H148.429V52.5455H146.366L146.23 53.8963C146.164 54.5838 146.082 55.1804 145.983 55.6861C145.883 56.1889 145.724 56.5923 145.505 56.8963ZM155.041 58.1321C154.428 58.1321 153.892 57.9915 153.435 57.7102C152.977 57.429 152.622 57.0355 152.369 56.5298C152.116 56.0241 151.99 55.4332 151.99 54.7571C151.99 54.0781 152.116 53.4844 152.369 52.9759C152.622 52.4673 152.977 52.0724 153.435 51.7912C153.892 51.5099 154.428 51.3693 155.041 51.3693C155.655 51.3693 156.19 51.5099 156.648 51.7912C157.105 52.0724 157.46 52.4673 157.713 52.9759C157.966 53.4844 158.092 54.0781 158.092 54.7571C158.092 55.4332 157.966 56.0241 157.713 56.5298C157.46 57.0355 157.105 57.429 156.648 57.7102C156.19 57.9915 155.655 58.1321 155.041 58.1321ZM155.045 57.0625C155.443 57.0625 155.773 56.9574 156.034 56.7472C156.295 56.5369 156.489 56.2571 156.614 55.9077C156.741 55.5582 156.805 55.1733 156.805 54.7528C156.805 54.3352 156.741 53.9517 156.614 53.6023C156.489 53.25 156.295 52.9673 156.034 52.7543C155.773 52.5412 155.443 52.4347 155.045 52.4347C154.645 52.4347 154.312 52.5412 154.048 52.7543C153.787 52.9673 153.592 53.25 153.464 53.6023C153.339 53.9517 153.277 54.3352 153.277 54.7528C153.277 55.1733 153.339 55.5582 153.464 55.9077C153.592 56.2571 153.787 56.5369 154.048 56.7472C154.312 56.9574 154.645 57.0625 155.045 57.0625ZM159.875 58V51.4545H161.149V54.1989H161.762L163.923 51.4545H165.5L162.964 54.6378L165.529 58H163.948L161.975 55.3835H161.149V58H159.875ZM169.367 58.1321C168.753 58.1321 168.217 57.9915 167.76 57.7102C167.303 57.429 166.948 57.0355 166.695 56.5298C166.442 56.0241 166.315 55.4332 166.315 54.7571C166.315 54.0781 166.442 53.4844 166.695 52.9759C166.948 52.4673 167.303 52.0724 167.76 51.7912C168.217 51.5099 168.753 51.3693 169.367 51.3693C169.98 51.3693 170.516 51.5099 170.973 51.7912C171.431 52.0724 171.786 52.4673 172.038 52.9759C172.291 53.4844 172.418 54.0781 172.418 54.7571C172.418 55.4332 172.291 56.0241 172.038 56.5298C171.786 57.0355 171.431 57.429 170.973 57.7102C170.516 57.9915 169.98 58.1321 169.367 58.1321ZM169.371 57.0625C169.769 57.0625 170.098 56.9574 170.36 56.7472C170.621 56.5369 170.814 56.2571 170.939 55.9077C171.067 55.5582 171.131 55.1733 171.131 54.7528C171.131 54.3352 171.067 53.9517 170.939 53.6023C170.814 53.25 170.621 52.9673 170.36 52.7543C170.098 52.5412 169.769 52.4347 169.371 52.4347C168.97 52.4347 168.638 52.5412 168.374 52.7543C168.112 52.9673 167.918 53.25 167.79 53.6023C167.665 53.9517 167.602 54.3352 167.602 54.7528C167.602 55.1733 167.665 55.5582 167.79 55.9077C167.918 56.2571 168.112 56.5369 168.374 56.7472C168.638 56.9574 168.97 57.0625 169.371 57.0625ZM174.2 60.4545V51.4545H175.444V52.5156H175.551C175.625 52.3793 175.731 52.2216 175.87 52.0426C176.01 51.8636 176.203 51.7074 176.45 51.5739C176.697 51.4375 177.024 51.3693 177.43 51.3693C177.958 51.3693 178.43 51.5028 178.845 51.7699C179.26 52.0369 179.585 52.4219 179.821 52.9247C180.059 53.4276 180.179 54.0327 180.179 54.7401C180.179 55.4474 180.061 56.054 179.825 56.5597C179.589 57.0625 179.265 57.4503 178.853 57.723C178.441 57.9929 177.971 58.1278 177.443 58.1278C177.045 58.1278 176.72 58.0611 176.467 57.9276C176.217 57.794 176.021 57.6378 175.879 57.4588C175.737 57.2798 175.628 57.1207 175.551 56.9815H175.474V60.4545H174.2ZM175.449 54.7273C175.449 55.1875 175.515 55.5909 175.649 55.9375C175.782 56.2841 175.976 56.5554 176.228 56.7514C176.481 56.9446 176.791 57.0412 177.157 57.0412C177.538 57.0412 177.856 56.9403 178.112 56.7386C178.368 56.5341 178.561 56.2571 178.691 55.9077C178.825 55.5582 178.892 55.1648 178.892 54.7273C178.892 54.2955 178.826 53.9077 178.696 53.5639C178.568 53.2202 178.375 52.9489 178.116 52.75C177.86 52.5511 177.541 52.4517 177.157 52.4517C176.788 52.4517 176.476 52.5469 176.22 52.7372C175.967 52.9276 175.775 53.1932 175.645 53.5341C175.514 53.875 175.449 54.2727 175.449 54.7273ZM183.215 56.2145L186.1 51.4545H187.472V58H186.223V53.2358L183.351 58H181.966V51.4545H183.215V56.2145ZM192.302 58.1321C191.669 58.1321 191.123 57.9886 190.666 57.7017C190.211 57.4119 189.862 57.0128 189.617 56.5043C189.373 55.9957 189.251 55.4134 189.251 54.7571C189.251 54.0923 189.376 53.5057 189.626 52.9972C189.876 52.4858 190.228 52.0866 190.683 51.7997C191.137 51.5128 191.673 51.3693 192.289 51.3693C192.786 51.3693 193.23 51.4616 193.619 51.6463C194.008 51.8281 194.322 52.0838 194.561 52.4134C194.802 52.7429 194.946 53.1278 194.991 53.5682H193.751C193.683 53.2614 193.527 52.9972 193.282 52.7756C193.041 52.554 192.717 52.4432 192.311 52.4432C191.955 52.4432 191.644 52.5369 191.377 52.7244C191.113 52.9091 190.907 53.1733 190.759 53.517C190.612 53.858 190.538 54.2614 190.538 54.7273C190.538 55.2045 190.61 55.6165 190.755 55.9631C190.9 56.3097 191.105 56.5781 191.369 56.7685C191.636 56.9588 191.95 57.054 192.311 57.054C192.552 57.054 192.771 57.0099 192.967 56.9219C193.166 56.831 193.332 56.7017 193.465 56.5341C193.602 56.3665 193.697 56.1648 193.751 55.929H194.991C194.946 56.3523 194.808 56.7301 194.578 57.0625C194.348 57.3949 194.039 57.6562 193.653 57.8466C193.269 58.0369 192.819 58.1321 192.302 58.1321ZM196.218 52.554V51.4545H201.741V52.554H199.606V58H198.362V52.554H196.218ZM204.254 60.4545C204.064 60.4545 203.89 60.4389 203.734 60.4077C203.578 60.3793 203.461 60.348 203.385 60.3139L203.691 59.2699C203.924 59.3324 204.132 59.3594 204.314 59.3509C204.495 59.3423 204.656 59.2741 204.795 59.1463C204.937 59.0185 205.062 58.8097 205.17 58.5199L205.328 58.0852L202.933 51.4545H204.297L205.954 56.5341H206.022L207.68 51.4545H209.048L206.351 58.8736C206.226 59.2145 206.066 59.5028 205.873 59.7386C205.68 59.9773 205.45 60.1563 205.183 60.2756C204.916 60.3949 204.606 60.4545 204.254 60.4545ZM210.605 58V51.4545H213.32C214.059 51.4545 214.644 51.6122 215.076 51.9276C215.507 52.2401 215.723 52.6648 215.723 53.2017C215.723 53.5852 215.601 53.8892 215.357 54.1136C215.113 54.3381 214.789 54.4886 214.385 54.5653C214.678 54.5994 214.946 54.6875 215.191 54.8295C215.435 54.9687 215.631 55.1562 215.779 55.392C215.929 55.6278 216.005 55.9091 216.005 56.2358C216.005 56.5824 215.915 56.8892 215.736 57.1562C215.557 57.4205 215.297 57.6278 214.956 57.7784C214.618 57.9261 214.211 58 213.733 58H210.605ZM211.803 56.9347H213.733C214.049 56.9347 214.296 56.8594 214.475 56.7088C214.654 56.5582 214.743 56.3537 214.743 56.0952C214.743 55.7912 214.654 55.5526 214.475 55.3793C214.296 55.2031 214.049 55.1151 213.733 55.1151H211.803V56.9347ZM211.803 54.1818H213.333C213.571 54.1818 213.776 54.1477 213.946 54.0795C214.12 54.0114 214.252 53.9148 214.343 53.7898C214.436 53.6619 214.483 53.5114 214.483 53.3381C214.483 53.0852 214.38 52.8878 214.172 52.7457C213.965 52.6037 213.681 52.5327 213.32 52.5327H211.803V54.1818ZM219.667 58.1449C219.252 58.1449 218.877 58.0682 218.542 57.9148C218.207 57.7585 217.941 57.5327 217.745 57.2372C217.552 56.9418 217.455 56.5795 217.455 56.1506C217.455 55.7812 217.527 55.4773 217.669 55.2386C217.811 55 218.002 54.8111 218.244 54.6719C218.485 54.5327 218.755 54.4276 219.054 54.3565C219.352 54.2855 219.656 54.2315 219.965 54.1946C220.357 54.1491 220.676 54.1122 220.92 54.0838C221.164 54.0526 221.342 54.0028 221.453 53.9347C221.563 53.8665 221.619 53.7557 221.619 53.6023V53.5724C221.619 53.2003 221.514 52.9119 221.304 52.7074C221.096 52.5028 220.786 52.4006 220.375 52.4006C219.946 52.4006 219.607 52.4957 219.36 52.6861C219.116 52.8736 218.947 53.0824 218.853 53.3125L217.656 53.0398C217.798 52.642 218.005 52.321 218.278 52.0767C218.554 51.8295 218.87 51.6506 219.228 51.5398C219.586 51.4261 219.963 51.3693 220.357 51.3693C220.619 51.3693 220.896 51.4006 221.188 51.4631C221.484 51.5227 221.759 51.6335 222.015 51.7955C222.274 51.9574 222.485 52.1889 222.65 52.4901C222.815 52.7884 222.897 53.1761 222.897 53.6534V58H221.653V57.1051H221.602C221.519 57.2699 221.396 57.4318 221.231 57.5909C221.066 57.75 220.855 57.8821 220.596 57.9872C220.338 58.0923 220.028 58.1449 219.667 58.1449ZM219.944 57.1222C220.296 57.1222 220.598 57.0526 220.848 56.9134C221.1 56.7741 221.292 56.5923 221.423 56.3679C221.556 56.1406 221.623 55.8977 221.623 55.6392V54.7955C221.578 54.8409 221.49 54.8835 221.359 54.9233C221.231 54.9602 221.085 54.9929 220.92 55.0213C220.755 55.0469 220.595 55.071 220.438 55.0938C220.282 55.1136 220.152 55.1307 220.046 55.1449C219.799 55.1761 219.573 55.2287 219.369 55.3026C219.167 55.3764 219.005 55.483 218.883 55.6222C218.764 55.7585 218.704 55.9403 218.704 56.1676C218.704 56.483 218.821 56.7216 219.054 56.8835C219.286 57.0426 219.583 57.1222 219.944 57.1222ZM229.39 54.1776V55.2812H225.845V54.1776H229.39ZM226.203 51.4545V58H224.954V51.4545H226.203ZM230.281 51.4545V58H229.037V51.4545H230.281ZM236.782 54.1776V55.2812H233.236V54.1776H236.782ZM233.594 51.4545V58H232.346V51.4545H233.594ZM237.672 51.4545V58H236.428V51.4545H237.672ZM243.64 58V52.5412H242.072C241.7 52.5412 241.41 52.6278 241.203 52.8011C240.995 52.9744 240.892 53.2017 240.892 53.483C240.892 53.7614 240.987 53.9858 241.177 54.1562C241.37 54.3239 241.64 54.4077 241.987 54.4077H244.011V55.4389H241.987C241.504 55.4389 241.086 55.3594 240.734 55.2003C240.385 55.0384 240.115 54.8097 239.924 54.5142C239.737 54.2187 239.643 53.8693 239.643 53.4659C239.643 53.054 239.74 52.6989 239.933 52.4006C240.129 52.0994 240.409 51.8665 240.772 51.7017C241.139 51.5369 241.572 51.4545 242.072 51.4545H244.838V58H243.64ZM239.345 58L241.19 54.6932H242.494L240.649 58H239.345Z" fill="#005683"/>
</svg>
