<svg width="199" height="54" viewBox="0 0 199 54" fill="none" xmlns="http://www.w3.org/2000/svg">
<path d="M1.07599 12V1.09091H3.0522V5.70916H8.10724V1.09091H10.0888V12H8.10724V7.36577H3.0522V12H1.07599ZM14.5073 12.1651C13.9888 12.1651 13.5218 12.0728 13.1064 11.8881C12.6944 11.6999 12.3677 11.4229 12.1262 11.0572C11.8883 10.6914 11.7694 10.2404 11.7694 9.70419C11.7694 9.24254 11.8546 8.8608 12.025 8.55895C12.1955 8.2571 12.4281 8.01562 12.7228 7.83452C13.0176 7.65341 13.3496 7.51669 13.7189 7.42436C14.0918 7.32848 14.4771 7.25923 14.8748 7.21662C15.3542 7.1669 15.7431 7.12251 16.0414 7.08345C16.3397 7.04084 16.5563 6.97692 16.6912 6.89169C16.8297 6.80291 16.899 6.66619 16.899 6.48153V6.44957C16.899 6.0483 16.78 5.73757 16.5421 5.5174C16.3042 5.29723 15.9615 5.18714 15.514 5.18714C15.0417 5.18714 14.6671 5.29013 14.3901 5.49609C14.1167 5.70206 13.932 5.94531 13.8361 6.22585L12.0357 5.97017C12.1777 5.47301 12.4121 5.05753 12.7388 4.72372C13.0655 4.38636 13.465 4.13423 13.9373 3.96733C14.4096 3.79688 14.9316 3.71165 15.5034 3.71165C15.8975 3.71165 16.29 3.75781 16.6806 3.85014C17.0712 3.94247 17.4281 4.09517 17.7512 4.30824C18.0744 4.51776 18.3336 4.80362 18.5289 5.16584C18.7278 5.52805 18.8272 5.98082 18.8272 6.52415V12H16.9735V10.8761H16.9096C16.7924 11.1033 16.6273 11.3164 16.4142 11.5153C16.2047 11.7106 15.9402 11.8686 15.6206 11.9893C15.3045 12.1065 14.9334 12.1651 14.5073 12.1651ZM15.008 10.7482C15.3951 10.7482 15.7306 10.6719 16.0147 10.5192C16.2988 10.3629 16.5172 10.157 16.6699 9.90128C16.8262 9.6456 16.9043 9.36683 16.9043 9.06499V8.10085C16.8439 8.15057 16.7409 8.19673 16.5953 8.23935C16.4533 8.28196 16.2935 8.31925 16.1159 8.35121C15.9384 8.38317 15.7626 8.41158 15.5886 8.43643C15.4146 8.46129 15.2637 8.4826 15.1358 8.50035C14.8482 8.53942 14.5907 8.60334 14.3635 8.69212C14.1362 8.78089 13.9569 8.90518 13.8255 9.06499C13.6941 9.22124 13.6284 9.42365 13.6284 9.67223C13.6284 10.0273 13.758 10.2955 14.0172 10.4766C14.2765 10.6577 14.6067 10.7482 15.008 10.7482ZM27.6749 3.81818V10.5618H28.9267V14.6314H27.041V12H20.7662V3.81818H22.6252V10.418H25.8319V3.81818H27.6749ZM30.5074 12V3.81818H32.4356V12H30.5074ZM31.4768 2.65696C31.1714 2.65696 30.9086 2.55575 30.6885 2.35334C30.4683 2.14737 30.3582 1.90057 30.3582 1.61293C30.3582 1.32173 30.4683 1.07493 30.6885 0.872513C30.9086 0.666548 31.1714 0.563565 31.4768 0.563565C31.7858 0.563565 32.0486 0.666548 32.2652 0.872513C32.4854 1.07493 32.5954 1.32173 32.5954 1.61293C32.5954 1.90057 32.4854 2.14737 32.2652 2.35334C32.0486 2.55575 31.7858 2.65696 31.4768 2.65696ZM37.9874 12.1598C37.1884 12.1598 36.4959 11.984 35.91 11.6325C35.324 11.2809 34.8695 10.7891 34.5463 10.157C34.2267 9.52486 34.0669 8.78622 34.0669 7.94105C34.0669 7.09588 34.2267 6.35547 34.5463 5.71982C34.8695 5.08416 35.324 4.59055 35.91 4.23899C36.4959 3.88743 37.1884 3.71165 37.9874 3.71165C38.7864 3.71165 39.4789 3.88743 40.0648 4.23899C40.6507 4.59055 41.1035 5.08416 41.4231 5.71982C41.7463 6.35547 41.9078 7.09588 41.9078 7.94105C41.9078 8.78622 41.7463 9.52486 41.4231 10.157C41.1035 10.7891 40.6507 11.2809 40.0648 11.6325C39.4789 11.984 38.7864 12.1598 37.9874 12.1598ZM37.998 10.6151C38.4313 10.6151 38.7935 10.4961 39.0847 10.2582C39.3759 10.0167 39.5925 9.69354 39.7346 9.28871C39.8801 8.88388 39.9529 8.43288 39.9529 7.93572C39.9529 7.43501 39.8801 6.98224 39.7346 6.57741C39.5925 6.16903 39.3759 5.84411 39.0847 5.60263C38.7935 5.36115 38.4313 5.24041 37.998 5.24041C37.5542 5.24041 37.1848 5.36115 36.8901 5.60263C36.5989 5.84411 36.3805 6.16903 36.2349 6.57741C36.0929 6.98224 36.0218 7.43501 36.0218 7.93572C36.0218 8.43288 36.0929 8.88388 36.2349 9.28871C36.3805 9.69354 36.5989 10.0167 36.8901 10.2582C37.1848 10.4961 37.5542 10.6151 37.998 10.6151ZM49.1642 7.11008V8.69212H44.8069V7.11008H49.1642ZM45.4035 3.81818V12H43.5445V3.81818H45.4035ZM50.4266 3.81818V12H48.5729V3.81818H50.4266ZM54.7319 12.1651C54.2134 12.1651 53.7464 12.0728 53.331 11.8881C52.919 11.6999 52.5923 11.4229 52.3509 11.0572C52.1129 10.6914 51.994 10.2404 51.994 9.70419C51.994 9.24254 52.0792 8.8608 52.2496 8.55895C52.4201 8.2571 52.6527 8.01562 52.9474 7.83452C53.2422 7.65341 53.5742 7.51669 53.9435 7.42436C54.3164 7.32848 54.7017 7.25923 55.0994 7.21662C55.5788 7.1669 55.9677 7.12251 56.266 7.08345C56.5643 7.04084 56.7809 6.97692 56.9158 6.89169C57.0543 6.80291 57.1236 6.66619 57.1236 6.48153V6.44957C57.1236 6.0483 57.0046 5.73757 56.7667 5.5174C56.5288 5.29723 56.1861 5.18714 55.7386 5.18714C55.2663 5.18714 54.8917 5.29013 54.6147 5.49609C54.3413 5.70206 54.1566 5.94531 54.0607 6.22585L52.2603 5.97017C52.4023 5.47301 52.6367 5.05753 52.9634 4.72372C53.2901 4.38636 53.6896 4.13423 54.1619 3.96733C54.6342 3.79688 55.1563 3.71165 55.728 3.71165C56.1222 3.71165 56.5146 3.75781 56.9052 3.85014C57.2958 3.94247 57.6527 4.09517 57.9759 4.30824C58.299 4.51776 58.5582 4.80362 58.7536 5.16584C58.9524 5.52805 59.0518 5.98082 59.0518 6.52415V12H57.1982V10.8761H57.1342C57.017 11.1033 56.8519 11.3164 56.6388 11.5153C56.4293 11.7106 56.1648 11.8686 55.8452 11.9893C55.5291 12.1065 55.158 12.1651 54.7319 12.1651ZM55.2326 10.7482C55.6197 10.7482 55.9553 10.6719 56.2393 10.5192C56.5234 10.3629 56.7418 10.157 56.8945 9.90128C57.0508 9.6456 57.1289 9.36683 57.1289 9.06499V8.10085C57.0685 8.15057 56.9656 8.19673 56.82 8.23935C56.6779 8.28196 56.5181 8.31925 56.3406 8.35121C56.163 8.38317 55.9872 8.41158 55.8132 8.43643C55.6392 8.46129 55.4883 8.4826 55.3604 8.50035C55.0728 8.53942 54.8153 8.60334 54.5881 8.69212C54.3608 8.78089 54.1815 8.90518 54.0501 9.06499C53.9187 9.22124 53.853 9.42365 53.853 9.67223C53.853 10.0273 53.9826 10.2955 54.2418 10.4766C54.5011 10.6577 54.8313 10.7482 55.2326 10.7482ZM60.4261 12L60.4155 10.4126H60.6978C60.9109 10.4126 61.0902 10.3647 61.2358 10.2688C61.3814 10.1729 61.5021 10.0131 61.598 9.78942C61.6939 9.56214 61.7685 9.25675 61.8217 8.87322C61.875 8.4897 61.9123 8.01207 61.9336 7.44034L62.0774 3.81818H68.0433V12H66.179V5.40021H63.8299L63.7021 8.03693C63.6701 8.71875 63.5938 9.31001 63.473 9.81072C63.3558 10.3079 63.1889 10.718 62.9723 11.0412C62.7592 11.3643 62.4911 11.6058 62.168 11.7656C61.8448 11.9219 61.4631 12 61.0227 12H60.4261ZM71.29 6.48153H73.7029C74.747 6.48153 75.5549 6.73544 76.1266 7.24325C76.6983 7.75107 76.986 8.4169 76.9895 9.24077C76.986 9.77699 76.8546 10.2528 76.5953 10.6683C76.3397 11.0838 75.9668 11.4105 75.4767 11.6484C74.9902 11.8828 74.399 12 73.7029 12H69.9849V3.81818H71.8439V10.418H73.7029C74.122 10.418 74.4664 10.3114 74.7363 10.0984C75.0062 9.88175 75.1412 9.60476 75.1412 9.2674C75.1412 8.91229 75.0062 8.62287 74.7363 8.39915C74.4664 8.17543 74.122 8.06357 73.7029 8.06357H71.29V6.48153ZM84.2618 7.11008V8.69212H79.9046V7.11008H84.2618ZM80.5012 3.81818V12H78.6421V3.81818H80.5012ZM85.5242 3.81818V12H83.6705V3.81818H85.5242ZM89.3342 9.38991L92.6101 3.81818H94.5916V12H92.7273V6.42294L89.462 12H87.4751V3.81818H89.3342V9.38991ZM98.4308 9.38991L101.707 3.81818H103.688V12H101.824V6.42294L98.5587 12H96.5718V3.81818H98.4308V9.38991ZM101.179 1.00568H102.623C102.623 1.62713 102.397 2.13139 101.946 2.51847C101.499 2.90199 100.892 3.09375 100.125 3.09375C99.3648 3.09375 98.7593 2.90199 98.3083 2.51847C97.8609 2.13139 97.6389 1.62713 97.6425 1.00568H99.0754C99.0754 1.26136 99.1535 1.49041 99.3097 1.69283C99.4695 1.89169 99.7412 1.99112 100.125 1.99112C100.501 1.99112 100.769 1.89169 100.929 1.69283C101.092 1.49396 101.176 1.26491 101.179 1.00568ZM110.588 15.0682C110.325 15.0682 110.082 15.0469 109.858 15.0043C109.638 14.9652 109.462 14.919 109.331 14.8658L109.778 13.3636C110.059 13.4453 110.309 13.4844 110.529 13.4808C110.749 13.4773 110.943 13.408 111.11 13.2731C111.28 13.1417 111.424 12.9215 111.541 12.6126L111.706 12.1705L108.739 3.81818H110.785L112.67 9.99716H112.756L114.647 3.81818H116.697L113.422 12.9908C113.269 13.424 113.066 13.7951 112.814 14.104C112.562 14.4165 112.253 14.6545 111.887 14.8178C111.525 14.9847 111.092 15.0682 110.588 15.0682ZM123.651 7.11008V8.69212H119.294V7.11008H123.651ZM119.891 3.81818V12H118.032V3.81818H119.891ZM124.914 3.81818V12H123.06V3.81818H124.914ZM126.865 12V3.81818H128.793V12H126.865ZM127.834 2.65696C127.529 2.65696 127.266 2.55575 127.046 2.35334C126.826 2.14737 126.716 1.90057 126.716 1.61293C126.716 1.32173 126.826 1.07493 127.046 0.872513C127.266 0.666548 127.529 0.563565 127.834 0.563565C128.143 0.563565 128.406 0.666548 128.623 0.872513C128.843 1.07493 128.953 1.32173 128.953 1.61293C128.953 1.90057 128.843 2.14737 128.623 2.35334C128.406 2.55575 128.143 2.65696 127.834 2.65696ZM130.776 12V3.81818H134.212C135.181 3.81818 135.946 4.01172 136.507 4.39879C137.072 4.78587 137.354 5.32564 137.354 6.01811C137.354 6.47621 137.195 6.85085 136.875 7.14205C136.559 7.42969 136.127 7.62322 135.581 7.72266C136.01 7.75817 136.387 7.86648 136.71 8.04759C137.037 8.22869 137.292 8.46662 137.477 8.76136C137.662 9.05611 137.754 9.39524 137.754 9.77876C137.754 10.2298 137.635 10.6222 137.397 10.956C137.163 11.2862 136.82 11.5437 136.369 11.7283C135.922 11.9094 135.378 12 134.739 12H130.776ZM132.582 10.4819H134.739C135.094 10.4819 135.373 10.3984 135.575 10.2315C135.778 10.0611 135.879 9.83026 135.879 9.53906C135.879 9.2017 135.778 8.93714 135.575 8.74538C135.373 8.55007 135.094 8.45241 134.739 8.45241H132.582V10.4819ZM132.582 7.20597H134.249C134.512 7.20597 134.737 7.16868 134.925 7.09411C135.114 7.01598 135.257 6.90767 135.357 6.76918C135.456 6.62713 135.506 6.45845 135.506 6.26314C135.506 5.9826 135.391 5.76243 135.16 5.60263C134.933 5.44283 134.616 5.36293 134.212 5.36293H132.582V7.20597ZM142.967 12.1598C142.147 12.1598 141.439 11.9893 140.842 11.6484C140.249 11.304 139.793 10.8175 139.473 10.1889C139.153 9.55682 138.994 8.81286 138.994 7.95703C138.994 7.11541 139.153 6.37678 139.473 5.74112C139.796 5.10192 140.247 4.60476 140.826 4.24964C141.405 3.89098 142.085 3.71165 142.866 3.71165C143.37 3.71165 143.846 3.79332 144.294 3.95668C144.745 4.11648 145.142 4.36506 145.487 4.70241C145.835 5.03977 146.108 5.46946 146.307 5.99148C146.506 6.50994 146.606 7.12784 146.606 7.84517V8.43643H139.899V7.13672H144.757C144.754 6.7674 144.674 6.43892 144.517 6.15128C144.361 5.86009 144.143 5.63104 143.862 5.46413C143.585 5.29723 143.262 5.21378 142.893 5.21378C142.499 5.21378 142.152 5.30966 141.854 5.50142C141.556 5.68963 141.323 5.93821 141.156 6.24716C140.993 6.55256 140.91 6.88814 140.906 7.25391V8.38849C140.906 8.86435 140.993 9.27273 141.167 9.61364C141.341 9.95099 141.584 10.2102 141.897 10.3913C142.209 10.5689 142.575 10.6577 142.994 10.6577C143.275 10.6577 143.528 10.6186 143.756 10.5405C143.983 10.4588 144.18 10.3398 144.347 10.1836C144.514 10.0273 144.64 9.83381 144.725 9.60298L146.526 9.8054C146.412 10.2812 146.195 10.6967 145.876 11.0518C145.56 11.4034 145.155 11.6768 144.661 11.8722C144.168 12.0639 143.603 12.1598 142.967 12.1598ZM148.237 15.0682V3.81818H150.133V5.17116H150.245C150.344 4.9723 150.485 4.76101 150.666 4.53729C150.847 4.31001 151.092 4.11648 151.401 3.95668C151.71 3.79332 152.104 3.71165 152.583 3.71165C153.216 3.71165 153.786 3.87322 154.293 4.19638C154.805 4.51598 155.21 4.99006 155.508 5.61861C155.81 6.24361 155.961 7.01065 155.961 7.91974C155.961 8.81818 155.813 9.58168 155.518 10.2102C155.224 10.8388 154.822 11.3182 154.315 11.6484C153.807 11.9787 153.232 12.1438 152.589 12.1438C152.12 12.1438 151.731 12.0657 151.422 11.9094C151.113 11.7532 150.865 11.565 150.676 11.3448C150.492 11.1211 150.348 10.9098 150.245 10.7109H150.165V15.0682H148.237ZM150.128 7.90909C150.128 8.43821 150.202 8.90163 150.352 9.29936C150.504 9.69709 150.723 10.0078 151.007 10.2315C151.294 10.4517 151.642 10.5618 152.051 10.5618C152.477 10.5618 152.834 10.4482 153.121 10.2209C153.409 9.99006 153.626 9.67578 153.771 9.27805C153.92 8.87678 153.995 8.42045 153.995 7.90909C153.995 7.40128 153.922 6.95028 153.777 6.55611C153.631 6.16193 153.414 5.85298 153.127 5.62926C152.839 5.40554 152.48 5.29368 152.051 5.29368C151.639 5.29368 151.289 5.40199 151.001 5.61861C150.714 5.83523 150.495 6.13885 150.346 6.52947C150.201 6.9201 150.128 7.37997 150.128 7.90909ZM161.181 12.1598C160.364 12.1598 159.663 11.9805 159.077 11.6218C158.494 11.2631 158.045 10.7678 157.729 10.1357C157.417 9.5 157.26 8.76847 157.26 7.94105C157.26 7.11009 157.42 6.37678 157.74 5.74112C158.059 5.10192 158.51 4.60476 159.093 4.24964C159.679 3.89098 160.371 3.71165 161.17 3.71165C161.834 3.71165 162.422 3.83416 162.933 4.07919C163.448 4.32067 163.858 4.66335 164.164 5.10724C164.469 5.54759 164.643 6.0625 164.686 6.65199H162.843C162.768 6.25781 162.591 5.92933 162.31 5.66655C162.033 5.40021 161.662 5.26705 161.197 5.26705C160.803 5.26705 160.456 5.37358 160.158 5.58665C159.86 5.79616 159.627 6.09801 159.46 6.49219C159.297 6.88636 159.215 7.35866 159.215 7.90909C159.215 8.46662 159.297 8.94602 159.46 9.3473C159.624 9.74503 159.853 10.0522 160.147 10.2688C160.446 10.4819 160.795 10.5884 161.197 10.5884C161.481 10.5884 161.735 10.5352 161.958 10.4286C162.186 10.3185 162.376 10.1605 162.528 9.95455C162.681 9.74858 162.786 9.49822 162.843 9.20348H164.686C164.64 9.78232 164.469 10.2955 164.174 10.7429C163.88 11.1868 163.478 11.5348 162.971 11.7869C162.463 12.0355 161.866 12.1598 161.181 12.1598ZM168.128 9.38991L171.404 3.81818H173.386V12H171.521V6.42294L168.256 12H166.269V3.81818H168.128V9.38991ZM174.45 5.40021V3.81818H181.609V5.40021H178.961V12H177.097V5.40021H174.45ZM186.429 12.1598C185.609 12.1598 184.901 11.9893 184.304 11.6484C183.711 11.304 183.255 10.8175 182.935 10.1889C182.615 9.55682 182.456 8.81286 182.456 7.95703C182.456 7.11541 182.615 6.37678 182.935 5.74112C183.258 5.10192 183.709 4.60476 184.288 4.24964C184.867 3.89098 185.547 3.71165 186.328 3.71165C186.832 3.71165 187.308 3.79332 187.756 3.95668C188.207 4.11648 188.604 4.36506 188.949 4.70241C189.297 5.03977 189.57 5.46946 189.769 5.99148C189.968 6.50994 190.067 7.12784 190.067 7.84517V8.43643H183.361V7.13672H188.219C188.216 6.7674 188.136 6.43892 187.979 6.15128C187.823 5.86009 187.605 5.63104 187.324 5.46413C187.047 5.29723 186.724 5.21378 186.355 5.21378C185.961 5.21378 185.614 5.30966 185.316 5.50142C185.018 5.68963 184.785 5.93821 184.618 6.24716C184.455 6.55256 184.371 6.88814 184.368 7.25391V8.38849C184.368 8.86435 184.455 9.27273 184.629 9.61364C184.803 9.95099 185.046 10.2102 185.359 10.3913C185.671 10.5689 186.037 10.6577 186.456 10.6577C186.737 10.6577 186.99 10.6186 187.218 10.5405C187.445 10.4588 187.642 10.3398 187.809 10.1836C187.976 10.0273 188.102 9.83381 188.187 9.60298L189.988 9.8054C189.874 10.2812 189.657 10.6967 189.338 11.0518C189.022 11.4034 188.617 11.6768 188.123 11.8722C187.63 12.0639 187.065 12.1598 186.429 12.1598ZM191.017 5.40021V3.81818H198.176V5.40021H195.529V12H193.664V5.40021H191.017ZM0.990767 31V22.8182H4.42649C5.39595 22.8182 6.16122 23.0117 6.7223 23.3988C7.28693 23.7859 7.56925 24.3256 7.56925 25.0181C7.56925 25.4762 7.40945 25.8509 7.08984 26.142C6.77379 26.4297 6.34233 26.6232 5.79545 26.7227C6.22514 26.7582 6.60156 26.8665 6.92472 27.0476C7.25142 27.2287 7.5071 27.4666 7.69176 27.7614C7.87642 28.0561 7.96875 28.3952 7.96875 28.7788C7.96875 29.2298 7.84979 29.6222 7.61186 29.956C7.37749 30.2862 7.0348 30.5437 6.58381 30.7283C6.13636 30.9094 5.59304 31 4.95384 31H0.990767ZM2.79652 29.4819H4.95384C5.30895 29.4819 5.58771 29.3984 5.79013 29.2315C5.99254 29.0611 6.09375 28.8303 6.09375 28.5391C6.09375 28.2017 5.99254 27.9371 5.79013 27.7454C5.58771 27.5501 5.30895 27.4524 4.95384 27.4524H2.79652V29.4819ZM2.79652 26.206H4.46378C4.72656 26.206 4.95206 26.1687 5.14027 26.0941C5.32848 26.016 5.4723 25.9077 5.57173 25.7692C5.67116 25.6271 5.72088 25.4585 5.72088 25.2631C5.72088 24.9826 5.60547 24.7624 5.37464 24.6026C5.14737 24.4428 4.83132 24.3629 4.42649 24.3629H2.79652V26.206ZM13.129 31.1598C12.33 31.1598 11.6375 30.984 11.0516 30.6325C10.4656 30.2809 10.0111 29.7891 9.68794 29.157C9.36834 28.5249 9.20854 27.7862 9.20854 26.9411C9.20854 26.0959 9.36834 25.3555 9.68794 24.7198C10.0111 24.0842 10.4656 23.5906 11.0516 23.239C11.6375 22.8874 12.33 22.7116 13.129 22.7116C13.928 22.7116 14.6205 22.8874 15.2064 23.239C15.7923 23.5906 16.2451 24.0842 16.5647 24.7198C16.8879 25.3555 17.0494 26.0959 17.0494 26.9411C17.0494 27.7862 16.8879 28.5249 16.5647 29.157C16.2451 29.7891 15.7923 30.2809 15.2064 30.6325C14.6205 30.984 13.928 31.1598 13.129 31.1598ZM13.1396 29.6151C13.5729 29.6151 13.9351 29.4961 14.2263 29.2582C14.5175 29.0167 14.7341 28.6935 14.8762 28.2887C15.0218 27.8839 15.0945 27.4329 15.0945 26.9357C15.0945 26.435 15.0218 25.9822 14.8762 25.5774C14.7341 25.169 14.5175 24.8441 14.2263 24.6026C13.9351 24.3612 13.5729 24.2404 13.1396 24.2404C12.6958 24.2404 12.3264 24.3612 12.0317 24.6026C11.7405 24.8441 11.5221 25.169 11.3765 25.5774C11.2345 25.9822 11.1634 26.435 11.1634 26.9357C11.1634 27.4329 11.2345 27.8839 11.3765 28.2887C11.5221 28.6935 11.7405 29.0167 12.0317 29.2582C12.3264 29.4961 12.6958 29.6151 13.1396 29.6151ZM17.9616 33.3757V29.4126H18.6115C18.7855 29.2777 18.9311 29.0948 19.0483 28.864C19.1655 28.6296 19.2614 28.3544 19.3359 28.0384C19.4141 27.7187 19.478 27.3619 19.5277 26.9677C19.5774 26.57 19.6218 26.142 19.6609 25.6839L19.8952 22.8182H25.8079V29.4126H27.0756V33.3757H25.2113V31H19.858V33.3757H17.9616ZM20.593 29.4126H23.9648V24.3736H21.5678L21.44 25.6839C21.369 26.5504 21.2749 27.2926 21.1577 27.9105C21.0405 28.5284 20.8523 29.0291 20.593 29.4126ZM34.1349 26.1101V27.6921H29.7776V26.1101H34.1349ZM30.3742 22.8182V31H28.5152V22.8182H30.3742ZM35.3973 22.8182V31H33.5436V22.8182H35.3973ZM40.9171 31.1598C40.1181 31.1598 39.4256 30.984 38.8397 30.6325C38.2537 30.2809 37.7992 29.7891 37.476 29.157C37.1564 28.5249 36.9966 27.7862 36.9966 26.9411C36.9966 26.0959 37.1564 25.3555 37.476 24.7198C37.7992 24.0842 38.2537 23.5906 38.8397 23.239C39.4256 22.8874 40.1181 22.7116 40.9171 22.7116C41.7161 22.7116 42.4086 22.8874 42.9945 23.239C43.5804 23.5906 44.0332 24.0842 44.3528 24.7198C44.676 25.3555 44.8375 26.0959 44.8375 26.9411C44.8375 27.7862 44.676 28.5249 44.3528 29.157C44.0332 29.7891 43.5804 30.2809 42.9945 30.6325C42.4086 30.984 41.7161 31.1598 40.9171 31.1598ZM40.9277 29.6151C41.361 29.6151 41.7232 29.4961 42.0144 29.2582C42.3056 29.0167 42.5222 28.6935 42.6642 28.2887C42.8098 27.8839 42.8826 27.4329 42.8826 26.9357C42.8826 26.435 42.8098 25.9822 42.6642 25.5774C42.5222 25.169 42.3056 24.8441 42.0144 24.6026C41.7232 24.3612 41.361 24.2404 40.9277 24.2404C40.4838 24.2404 40.1145 24.3612 39.8198 24.6026C39.5286 24.8441 39.3102 25.169 39.1646 25.5774C39.0225 25.9822 38.9515 26.435 38.9515 26.9357C38.9515 27.4329 39.0225 27.8839 39.1646 28.2887C39.3102 28.6935 39.5286 29.0167 39.8198 29.2582C40.1145 29.4961 40.4838 29.6151 40.9277 29.6151ZM51.8861 22.8182V24.4002H48.3598V31H46.4742V22.8182H51.8861ZM56.6642 31.1598C55.8651 31.1598 55.1727 30.984 54.5867 30.6325C54.0008 30.2809 53.5463 29.7891 53.2231 29.157C52.9035 28.5249 52.7437 27.7862 52.7437 26.9411C52.7437 26.0959 52.9035 25.3555 53.2231 24.7198C53.5463 24.0842 54.0008 23.5906 54.5867 23.239C55.1727 22.8874 55.8651 22.7116 56.6642 22.7116C57.4632 22.7116 58.1556 22.8874 58.7416 23.239C59.3275 23.5906 59.7803 24.0842 60.0999 24.7198C60.423 25.3555 60.5846 26.0959 60.5846 26.9411C60.5846 27.7862 60.423 28.5249 60.0999 29.157C59.7803 29.7891 59.3275 30.2809 58.7416 30.6325C58.1556 30.984 57.4632 31.1598 56.6642 31.1598ZM56.6748 29.6151C57.108 29.6151 57.4703 29.4961 57.7615 29.2582C58.0526 29.0167 58.2693 28.6935 58.4113 28.2887C58.5569 27.8839 58.6297 27.4329 58.6297 26.9357C58.6297 26.435 58.5569 25.9822 58.4113 25.5774C58.2693 25.169 58.0526 24.8441 57.7615 24.6026C57.4703 24.3612 57.108 24.2404 56.6748 24.2404C56.2309 24.2404 55.8616 24.3612 55.5669 24.6026C55.2757 24.8441 55.0573 25.169 54.9117 25.5774C54.7696 25.9822 54.6986 26.435 54.6986 26.9357C54.6986 27.4329 54.7696 27.8839 54.9117 28.2887C55.0573 28.6935 55.2757 29.0167 55.5669 29.2582C55.8616 29.4961 56.2309 29.6151 56.6748 29.6151ZM71.3539 22.8182V24.4002H67.8276V31H65.9419V22.8182H71.3539ZM76.1319 31.1598C75.3329 31.1598 74.6404 30.984 74.0545 30.6325C73.4686 30.2809 73.014 29.7891 72.6909 29.157C72.3713 28.5249 72.2115 27.7862 72.2115 26.9411C72.2115 26.0959 72.3713 25.3555 72.6909 24.7198C73.014 24.0842 73.4686 23.5906 74.0545 23.239C74.6404 22.8874 75.3329 22.7116 76.1319 22.7116C76.9309 22.7116 77.6234 22.8874 78.2093 23.239C78.7953 23.5906 79.248 24.0842 79.5676 24.7198C79.8908 25.3555 80.0524 26.0959 80.0524 26.9411C80.0524 27.7862 79.8908 28.5249 79.5676 29.157C79.248 29.7891 78.7953 30.2809 78.2093 30.6325C77.6234 30.984 76.9309 31.1598 76.1319 31.1598ZM76.1426 29.6151C76.5758 29.6151 76.938 29.4961 77.2292 29.2582C77.5204 29.0167 77.737 28.6935 77.8791 28.2887C78.0247 27.8839 78.0975 27.4329 78.0975 26.9357C78.0975 26.435 78.0247 25.9822 77.8791 25.5774C77.737 25.169 77.5204 24.8441 77.2292 24.6026C76.938 24.3612 76.5758 24.2404 76.1426 24.2404C75.6987 24.2404 75.3294 24.3612 75.0346 24.6026C74.7434 24.8441 74.525 25.169 74.3794 25.5774C74.2374 25.9822 74.1664 26.435 74.1664 26.9357C74.1664 27.4329 74.2374 27.8839 74.3794 28.2887C74.525 28.6935 74.7434 29.0167 75.0346 29.2582C75.3294 29.4961 75.6987 29.6151 76.1426 29.6151ZM85.2579 31.1598C84.4411 31.1598 83.7398 30.9805 83.1539 30.6218C82.5715 30.2631 82.1222 29.7678 81.8062 29.1357C81.4937 28.5 81.3374 27.7685 81.3374 26.9411C81.3374 26.1101 81.4972 25.3768 81.8169 24.7411C82.1365 24.1019 82.5874 23.6048 83.1698 23.2496C83.7558 22.891 84.4482 22.7116 85.2472 22.7116C85.9113 22.7116 86.499 22.8342 87.0104 23.0792C87.5253 23.3207 87.9355 23.6634 88.2409 24.1072C88.5463 24.5476 88.7203 25.0625 88.7629 25.652H86.9198C86.8453 25.2578 86.6677 24.9293 86.3872 24.6665C86.1102 24.4002 85.7391 24.267 85.2739 24.267C84.8797 24.267 84.5335 24.3736 84.2352 24.5866C83.9369 24.7962 83.7043 25.098 83.5374 25.4922C83.374 25.8864 83.2923 26.3587 83.2923 26.9091C83.2923 27.4666 83.374 27.946 83.5374 28.3473C83.7007 28.745 83.9298 29.0522 84.2245 29.2688C84.5228 29.4819 84.8726 29.5884 85.2739 29.5884C85.558 29.5884 85.8119 29.5352 86.0356 29.4286C86.2629 29.3185 86.4529 29.1605 86.6056 28.9545C86.7583 28.7486 86.863 28.4982 86.9198 28.2035H88.7629C88.7167 28.7823 88.5463 29.2955 88.2515 29.7429C87.9568 30.1868 87.5555 30.5348 87.0477 30.7869C86.5399 31.0355 85.9433 31.1598 85.2579 31.1598ZM90.3462 31V22.8182H97.255V31H95.396V24.4002H92.1893V31H90.3462ZM102.807 31.1598C102.008 31.1598 101.315 30.984 100.729 30.6325C100.143 30.2809 99.6888 29.7891 99.3657 29.157C99.0461 28.5249 98.8863 27.7862 98.8863 26.9411C98.8863 26.0959 99.0461 25.3555 99.3657 24.7198C99.6888 24.0842 100.143 23.5906 100.729 23.239C101.315 22.8874 102.008 22.7116 102.807 22.7116C103.606 22.7116 104.298 22.8874 104.884 23.239C105.47 23.5906 105.923 24.0842 106.242 24.7198C106.566 25.3555 106.727 26.0959 106.727 26.9411C106.727 27.7862 106.566 28.5249 106.242 29.157C105.923 29.7891 105.47 30.2809 104.884 30.6325C104.298 30.984 103.606 31.1598 102.807 31.1598ZM102.817 29.6151C103.251 29.6151 103.613 29.4961 103.904 29.2582C104.195 29.0167 104.412 28.6935 104.554 28.2887C104.699 27.8839 104.772 27.4329 104.772 26.9357C104.772 26.435 104.699 25.9822 104.554 25.5774C104.412 25.169 104.195 24.8441 103.904 24.6026C103.613 24.3612 103.251 24.2404 102.817 24.2404C102.373 24.2404 102.004 24.3612 101.709 24.6026C101.418 24.8441 101.2 25.169 101.054 25.5774C100.912 25.9822 100.841 26.435 100.841 26.9357C100.841 27.4329 100.912 27.8839 101.054 28.2887C101.2 28.6935 101.418 29.0167 101.709 29.2582C102.004 29.4961 102.373 29.6151 102.817 29.6151ZM107.639 33.3757V29.4126H108.289C108.463 29.2777 108.609 29.0948 108.726 28.864C108.843 28.6296 108.939 28.3544 109.014 28.0384C109.092 27.7187 109.156 27.3619 109.205 26.9677C109.255 26.57 109.3 26.142 109.339 25.6839L109.573 22.8182H115.486V29.4126H116.753V33.3757H114.889V31H109.536V33.3757H107.639ZM110.271 29.4126H113.643V24.3736H111.246L111.118 25.6839C111.047 26.5504 110.953 27.2926 110.835 27.9105C110.718 28.5284 110.53 29.0291 110.271 29.4126ZM120.547 31.1651C120.029 31.1651 119.562 31.0728 119.146 30.8881C118.734 30.6999 118.408 30.4229 118.166 30.0572C117.928 29.6914 117.809 29.2404 117.809 28.7042C117.809 28.2425 117.895 27.8608 118.065 27.5589C118.236 27.2571 118.468 27.0156 118.763 26.8345C119.058 26.6534 119.39 26.5167 119.759 26.4244C120.132 26.3285 120.517 26.2592 120.915 26.2166C121.394 26.1669 121.783 26.1225 122.081 26.0835C122.38 26.0408 122.596 25.9769 122.731 25.8917C122.87 25.8029 122.939 25.6662 122.939 25.4815V25.4496C122.939 25.0483 122.82 24.7376 122.582 24.5174C122.344 24.2972 122.002 24.1871 121.554 24.1871C121.082 24.1871 120.707 24.2901 120.43 24.4961C120.157 24.7021 119.972 24.9453 119.876 25.2259L118.076 24.9702C118.218 24.473 118.452 24.0575 118.779 23.7237C119.106 23.3864 119.505 23.1342 119.977 22.9673C120.45 22.7969 120.972 22.7116 121.543 22.7116C121.938 22.7116 122.33 22.7578 122.721 22.8501C123.111 22.9425 123.468 23.0952 123.791 23.3082C124.114 23.5178 124.374 23.8036 124.569 24.1658C124.768 24.5281 124.867 24.9808 124.867 25.5241V31H123.014V29.8761H122.95C122.832 30.1033 122.667 30.3164 122.454 30.5153C122.245 30.7106 121.98 30.8686 121.661 30.9893C121.345 31.1065 120.973 31.1651 120.547 31.1651ZM121.048 29.7482C121.435 29.7482 121.771 29.6719 122.055 29.5192C122.339 29.3629 122.557 29.157 122.71 28.9013C122.866 28.6456 122.944 28.3668 122.944 28.065V27.1009C122.884 27.1506 122.781 27.1967 122.635 27.2393C122.493 27.282 122.334 27.3192 122.156 27.3512C121.978 27.3832 121.803 27.4116 121.629 27.4364C121.455 27.4613 121.304 27.4826 121.176 27.5004C120.888 27.5394 120.631 27.6033 120.403 27.6921C120.176 27.7809 119.997 27.9052 119.866 28.065C119.734 28.2212 119.668 28.4237 119.668 28.6722C119.668 29.0273 119.798 29.2955 120.057 29.4766C120.316 29.6577 120.647 29.7482 121.048 29.7482ZM126.806 34.0682V22.8182H128.703V24.1712H128.814C128.914 23.9723 129.054 23.761 129.235 23.5373C129.416 23.31 129.661 23.1165 129.97 22.9567C130.279 22.7933 130.673 22.7116 131.153 22.7116C131.785 22.7116 132.355 22.8732 132.863 23.1964C133.374 23.516 133.779 23.9901 134.077 24.6186C134.379 25.2436 134.53 26.0107 134.53 26.9197C134.53 27.8182 134.383 28.5817 134.088 29.2102C133.793 29.8388 133.392 30.3182 132.884 30.6484C132.376 30.9787 131.801 31.1438 131.158 31.1438C130.689 31.1438 130.301 31.0657 129.992 30.9094C129.683 30.7532 129.434 30.565 129.246 30.3448C129.061 30.1211 128.917 29.9098 128.814 29.7109H128.734V34.0682H126.806ZM128.697 26.9091C128.697 27.4382 128.772 27.9016 128.921 28.2994C129.074 28.6971 129.292 29.0078 129.576 29.2315C129.864 29.4517 130.212 29.5618 130.62 29.5618C131.046 29.5618 131.403 29.4482 131.691 29.2209C131.978 28.9901 132.195 28.6758 132.341 28.2781C132.49 27.8768 132.564 27.4205 132.564 26.9091C132.564 26.4013 132.492 25.9503 132.346 25.5561C132.2 25.1619 131.984 24.853 131.696 24.6293C131.408 24.4055 131.05 24.2937 130.62 24.2937C130.208 24.2937 129.858 24.402 129.571 24.6186C129.283 24.8352 129.065 25.1388 128.916 25.5295C128.77 25.9201 128.697 26.38 128.697 26.9091ZM139.75 31.1598C138.933 31.1598 138.232 30.9805 137.646 30.6218C137.064 30.2631 136.614 29.7678 136.298 29.1357C135.986 28.5 135.83 27.7685 135.83 26.9411C135.83 26.1101 135.989 25.3768 136.309 24.7411C136.629 24.1019 137.08 23.6048 137.662 23.2496C138.248 22.891 138.94 22.7116 139.739 22.7116C140.403 22.7116 140.991 22.8342 141.503 23.0792C142.017 23.3207 142.428 23.6634 142.733 24.1072C143.038 24.5476 143.212 25.0625 143.255 25.652H141.412C141.337 25.2578 141.16 24.9293 140.879 24.6665C140.602 24.4002 140.231 24.267 139.766 24.267C139.372 24.267 139.026 24.3736 138.727 24.5866C138.429 24.7962 138.196 25.098 138.03 25.4922C137.866 25.8864 137.785 26.3587 137.785 26.9091C137.785 27.4666 137.866 27.946 138.03 28.3473C138.193 28.745 138.422 29.0522 138.717 29.2688C139.015 29.4819 139.365 29.5884 139.766 29.5884C140.05 29.5884 140.304 29.5352 140.528 29.4286C140.755 29.3185 140.945 29.1605 141.098 28.9545C141.25 28.7486 141.355 28.4982 141.412 28.2035H143.255C143.209 28.7823 143.038 29.2955 142.744 29.7429C142.449 30.1868 142.048 30.5348 141.54 30.7869C141.032 31.0355 140.435 31.1598 139.75 31.1598ZM144.244 24.4002V22.8182H151.404V24.4002H148.756V31H146.892V24.4002H144.244ZM152.939 31V22.8182H156.375C157.344 22.8182 158.109 23.0117 158.671 23.3988C159.235 23.7859 159.517 24.3256 159.517 25.0181C159.517 25.4762 159.358 25.8509 159.038 26.142C158.722 26.4297 158.291 26.6232 157.744 26.7227C158.173 26.7582 158.55 26.8665 158.873 27.0476C159.2 27.2287 159.455 27.4666 159.64 27.7614C159.825 28.0561 159.917 28.3952 159.917 28.7788C159.917 29.2298 159.798 29.6222 159.56 29.956C159.326 30.2862 158.983 30.5437 158.532 30.7283C158.085 30.9094 157.541 31 156.902 31H152.939ZM154.745 29.4819H156.902C157.257 29.4819 157.536 29.3984 157.738 29.2315C157.941 29.0611 158.042 28.8303 158.042 28.5391C158.042 28.2017 157.941 27.9371 157.738 27.7454C157.536 27.5501 157.257 27.4524 156.902 27.4524H154.745V29.4819ZM154.745 26.206H156.412C156.675 26.206 156.9 26.1687 157.089 26.0941C157.277 26.016 157.421 25.9077 157.52 25.7692C157.619 25.6271 157.669 25.4585 157.669 25.2631C157.669 24.9826 157.554 24.7624 157.323 24.6026C157.096 24.4428 156.78 24.3629 156.375 24.3629H154.745V26.206ZM163.863 31.1651C163.344 31.1651 162.877 31.0728 162.462 30.8881C162.05 30.6999 161.723 30.4229 161.482 30.0572C161.244 29.6914 161.125 29.2404 161.125 28.7042C161.125 28.2425 161.21 27.8608 161.381 27.5589C161.551 27.2571 161.784 27.0156 162.078 26.8345C162.373 26.6534 162.705 26.5167 163.074 26.4244C163.447 26.3285 163.833 26.2592 164.23 26.2166C164.71 26.1669 165.099 26.1225 165.397 26.0835C165.695 26.0408 165.912 25.9769 166.047 25.8917C166.185 25.8029 166.254 25.6662 166.254 25.4815V25.4496C166.254 25.0483 166.135 24.7376 165.898 24.5174C165.66 24.2972 165.317 24.1871 164.869 24.1871C164.397 24.1871 164.023 24.2901 163.746 24.4961C163.472 24.7021 163.287 24.9453 163.192 25.2259L161.391 24.9702C161.533 24.473 161.768 24.0575 162.094 23.7237C162.421 23.3864 162.82 23.1342 163.293 22.9673C163.765 22.7969 164.287 22.7116 164.859 22.7116C165.253 22.7116 165.645 22.7578 166.036 22.8501C166.427 22.9425 166.784 23.0952 167.107 23.3082C167.43 23.5178 167.689 23.8036 167.884 24.1658C168.083 24.5281 168.183 24.9808 168.183 25.5241V31H166.329V29.8761H166.265C166.148 30.1033 165.983 30.3164 165.77 30.5153C165.56 30.7106 165.296 30.8686 164.976 30.9893C164.66 31.1065 164.289 31.1651 163.863 31.1651ZM164.363 29.7482C164.751 29.7482 165.086 29.6719 165.37 29.5192C165.654 29.3629 165.873 29.157 166.025 28.9013C166.182 28.6456 166.26 28.3668 166.26 28.065V27.1009C166.199 27.1506 166.096 27.1967 165.951 27.2393C165.809 27.282 165.649 27.3192 165.471 27.3512C165.294 27.3832 165.118 27.4116 164.944 27.4364C164.77 27.4613 164.619 27.4826 164.491 27.5004C164.204 27.5394 163.946 27.6033 163.719 27.6921C163.492 27.7809 163.312 27.9052 163.181 28.065C163.05 28.2212 162.984 28.4237 162.984 28.6722C162.984 29.0273 163.113 29.2955 163.373 29.4766C163.632 29.6577 163.962 29.7482 164.363 29.7482ZM0.543324 43.4002V41.8182H7.70241V43.4002H5.05504V50H3.1907V43.4002H0.543324ZM11.2553 50.1651C10.7369 50.1651 10.2699 50.0728 9.8544 49.8881C9.44247 49.6999 9.11577 49.4229 8.87429 49.0572C8.63636 48.6914 8.5174 48.2404 8.5174 47.7042C8.5174 47.2425 8.60263 46.8608 8.77308 46.5589C8.94354 46.2571 9.17614 46.0156 9.47088 45.8345C9.76563 45.6534 10.0977 45.5167 10.467 45.4244C10.8398 45.3285 11.2251 45.2592 11.6229 45.2166C12.1023 45.1669 12.4911 45.1225 12.7894 45.0835C13.0877 45.0408 13.3043 44.9769 13.4393 44.8917C13.5778 44.8029 13.647 44.6662 13.647 44.4815V44.4496C13.647 44.0483 13.5281 43.7376 13.2901 43.5174C13.0522 43.2972 12.7095 43.1871 12.2621 43.1871C11.7898 43.1871 11.4151 43.2901 11.1381 43.4961C10.8647 43.7021 10.68 43.9453 10.5842 44.2259L8.78374 43.9702C8.92578 43.473 9.16016 43.0575 9.48686 42.7237C9.81357 42.3864 10.2131 42.1342 10.6854 41.9673C11.1577 41.7969 11.6797 41.7116 12.2514 41.7116C12.6456 41.7116 13.038 41.7578 13.4286 41.8501C13.8192 41.9425 14.1761 42.0952 14.4993 42.3082C14.8224 42.5178 15.0817 42.8036 15.277 43.1658C15.4759 43.5281 15.5753 43.9808 15.5753 44.5241V50H13.7216V48.8761H13.6577C13.5405 49.1033 13.3754 49.3164 13.1623 49.5153C12.9528 49.7106 12.6882 49.8686 12.3686 49.9893C12.0526 50.1065 11.6815 50.1651 11.2553 50.1651ZM11.756 48.7482C12.1431 48.7482 12.4787 48.6719 12.7628 48.5192C13.0469 48.3629 13.2653 48.157 13.418 47.9013C13.5742 47.6456 13.6523 47.3668 13.6523 47.065V46.1009C13.592 46.1506 13.489 46.1967 13.3434 46.2393C13.2013 46.282 13.0415 46.3192 12.864 46.3512C12.6864 46.3832 12.5107 46.4116 12.3366 46.4364C12.1626 46.4613 12.0117 46.4826 11.8839 46.5004C11.5962 46.5394 11.3388 46.6033 11.1115 46.6921C10.8842 46.7809 10.7049 46.9052 10.5735 47.065C10.4421 47.2212 10.3764 47.4237 10.3764 47.6722C10.3764 48.0273 10.506 48.2955 10.7653 48.4766C11.0245 48.6577 11.3548 48.7482 11.756 48.7482ZM21.2349 50V41.8182H28.1436V50H26.2846V43.4002H23.0779V50H21.2349ZM30.1265 53.0682V41.8182H32.0228V43.1712H32.1347C32.2341 42.9723 32.3744 42.761 32.5555 42.5373C32.7366 42.31 32.9816 42.1165 33.2906 41.9567C33.5995 41.7933 33.9937 41.7116 34.4731 41.7116C35.1052 41.7116 35.6752 41.8732 36.183 42.1964C36.6943 42.516 37.0992 42.9901 37.3975 43.6186C37.6993 44.2436 37.8502 45.0107 37.8502 45.9197C37.8502 46.8182 37.7029 47.5817 37.4081 48.2102C37.1134 48.8388 36.7121 49.3182 36.2043 49.6484C35.6965 49.9787 35.1212 50.1438 34.4784 50.1438C34.0097 50.1438 33.6208 50.0657 33.3119 49.9094C33.0029 49.7532 32.7544 49.565 32.5661 49.3448C32.3815 49.1211 32.2377 48.9098 32.1347 48.7109H32.0548V53.0682H30.1265ZM32.0175 45.9091C32.0175 46.4382 32.0921 46.9016 32.2412 47.2994C32.3939 47.6971 32.6123 48.0078 32.8964 48.2315C33.184 48.4517 33.532 48.5618 33.9404 48.5618C34.3666 48.5618 34.7235 48.4482 35.0111 48.2209C35.2987 47.9901 35.5154 47.6758 35.661 47.2781C35.8101 46.8768 35.8847 46.4205 35.8847 45.9091C35.8847 45.4013 35.8119 44.9503 35.6663 44.5561C35.5207 44.1619 35.3041 43.853 35.0164 43.6293C34.7288 43.4055 34.3701 43.2937 33.9404 43.2937C33.5285 43.2937 33.1787 43.402 32.8911 43.6186C32.6034 43.8352 32.385 44.1388 32.2359 44.5295C32.0903 44.9201 32.0175 45.38 32.0175 45.9091ZM41.3605 47.3899L44.6365 41.8182H46.618V50H44.7536V44.4229L41.4884 50H39.5015V41.8182H41.3605V47.3899ZM48.5982 53.0682V41.8182H50.4945V43.1712H50.6064C50.7058 42.9723 50.8461 42.761 51.0272 42.5373C51.2083 42.31 51.4533 42.1165 51.7623 41.9567C52.0712 41.7933 52.4654 41.7116 52.9448 41.7116C53.5769 41.7116 54.1468 41.8732 54.6547 42.1964C55.166 42.516 55.5708 42.9901 55.8691 43.6186C56.171 44.2436 56.3219 45.0107 56.3219 45.9197C56.3219 46.8182 56.1745 47.5817 55.8798 48.2102C55.585 48.8388 55.1838 49.3182 54.676 49.6484C54.1681 49.9787 53.5929 50.1438 52.9501 50.1438C52.4814 50.1438 52.0925 50.0657 51.7836 49.9094C51.4746 49.7532 51.226 49.565 51.0378 49.3448C50.8532 49.1211 50.7093 48.9098 50.6064 48.7109H50.5265V53.0682H48.5982ZM50.4892 45.9091C50.4892 46.4382 50.5637 46.9016 50.7129 47.2994C50.8656 47.6971 51.084 48.0078 51.3681 48.2315C51.6557 48.4517 52.0037 48.5618 52.4121 48.5618C52.8382 48.5618 53.1951 48.4482 53.4828 48.2209C53.7704 47.9901 53.987 47.6758 54.1326 47.2781C54.2818 46.8768 54.3564 46.4205 54.3564 45.9091C54.3564 45.4013 54.2836 44.9503 54.138 44.5561C53.9924 44.1619 53.7757 43.853 53.4881 43.6293C53.2005 43.4055 52.8418 43.2937 52.4121 43.2937C52.0002 43.2937 51.6504 43.402 51.3627 43.6186C51.0751 43.8352 50.8567 44.1388 50.7076 44.5295C50.562 44.9201 50.4892 45.38 50.4892 45.9091ZM61.5421 50.1598C60.7431 50.1598 60.0506 49.984 59.4647 49.6325C58.8787 49.2809 58.4242 48.7891 58.101 48.157C57.7814 47.5249 57.6216 46.7862 57.6216 45.9411C57.6216 45.0959 57.7814 44.3555 58.101 43.7198C58.4242 43.0842 58.8787 42.5906 59.4647 42.239C60.0506 41.8874 60.7431 41.7116 61.5421 41.7116C62.3411 41.7116 63.0336 41.8874 63.6195 42.239C64.2054 42.5906 64.6582 43.0842 64.9778 43.7198C65.301 44.3555 65.4625 45.0959 65.4625 45.9411C65.4625 46.7862 65.301 47.5249 64.9778 48.157C64.6582 48.7891 64.2054 49.2809 63.6195 49.6325C63.0336 49.984 62.3411 50.1598 61.5421 50.1598ZM61.5527 48.6151C61.986 48.6151 62.3482 48.4961 62.6394 48.2582C62.9306 48.0167 63.1472 47.6935 63.2892 47.2887C63.4348 46.8839 63.5076 46.4329 63.5076 45.9357C63.5076 45.435 63.4348 44.9822 63.2892 44.5774C63.1472 44.169 62.9306 43.8441 62.6394 43.6026C62.3482 43.3612 61.986 43.2404 61.5527 43.2404C61.1088 43.2404 60.7395 43.3612 60.4448 43.6026C60.1536 43.8441 59.9352 44.169 59.7896 44.5774C59.6475 44.9822 59.5765 45.435 59.5765 45.9357C59.5765 46.4329 59.6475 46.8839 59.7896 47.2887C59.9352 47.6935 60.1536 48.0167 60.4448 48.2582C60.7395 48.4961 61.1088 48.6151 61.5527 48.6151ZM66.3747 52.3757V48.4126H67.0246C67.1986 48.2777 67.3442 48.0948 67.4614 47.864C67.5786 47.6296 67.6744 47.3544 67.749 47.0384C67.8271 46.7187 67.8911 46.3619 67.9408 45.9677C67.9905 45.57 68.0349 45.142 68.074 44.6839L68.3083 41.8182H74.221V48.4126H75.4887V52.3757H73.6244V50H68.271V52.3757H66.3747ZM69.0061 48.4126H72.3779V43.3736H69.9809L69.8531 44.6839C69.782 45.5504 69.6879 46.2926 69.5708 46.9105C69.4536 47.5284 69.2654 48.0291 69.0061 48.4126ZM80.4972 50.1598C79.6982 50.1598 79.0057 49.984 78.4197 49.6325C77.8338 49.2809 77.3793 48.7891 77.0561 48.157C76.7365 47.5249 76.5767 46.7862 76.5767 45.9411C76.5767 45.0959 76.7365 44.3555 77.0561 43.7198C77.3793 43.0842 77.8338 42.5906 78.4197 42.239C79.0057 41.8874 79.6982 41.7116 80.4972 41.7116C81.2962 41.7116 81.9886 41.8874 82.5746 42.239C83.1605 42.5906 83.6133 43.0842 83.9329 43.7198C84.256 44.3555 84.4176 45.0959 84.4176 45.9411C84.4176 46.7862 84.256 47.5249 83.9329 48.157C83.6133 48.7891 83.1605 49.2809 82.5746 49.6325C81.9886 49.984 81.2962 50.1598 80.4972 50.1598ZM80.5078 48.6151C80.9411 48.6151 81.3033 48.4961 81.5945 48.2582C81.8857 48.0167 82.1023 47.6935 82.2443 47.2887C82.3899 46.8839 82.4627 46.4329 82.4627 45.9357C82.4627 45.435 82.3899 44.9822 82.2443 44.5774C82.1023 44.169 81.8857 43.8441 81.5945 43.6026C81.3033 43.3612 80.9411 43.2404 80.5078 43.2404C80.0639 43.2404 79.6946 43.3612 79.3999 43.6026C79.1087 43.8441 78.8903 44.169 78.7447 44.5774C78.6026 44.9822 78.5316 45.435 78.5316 45.9357C78.5316 46.4329 78.6026 46.8839 78.7447 47.2887C78.8903 47.6935 79.1087 48.0167 79.3999 48.2582C79.6946 48.4961 80.0639 48.6151 80.5078 48.6151ZM86.0542 50V41.8182H87.9825V45.1207H88.6856L91.1466 41.8182H93.469L90.4381 45.8345L93.501 50H91.1679L88.9253 46.9158H87.9825V50H86.0542ZM97.8263 50.1598C97.0273 50.1598 96.3348 49.984 95.7488 49.6325C95.1629 49.2809 94.7084 48.7891 94.3852 48.157C94.0656 47.5249 93.9058 46.7862 93.9058 45.9411C93.9058 45.0959 94.0656 44.3555 94.3852 43.7198C94.7084 43.0842 95.1629 42.5906 95.7488 42.239C96.3348 41.8874 97.0273 41.7116 97.8263 41.7116C98.6253 41.7116 99.3177 41.8874 99.9037 42.239C100.49 42.5906 100.942 43.0842 101.262 43.7198C101.585 44.3555 101.747 45.0959 101.747 45.9411C101.747 46.7862 101.585 47.5249 101.262 48.157C100.942 48.7891 100.49 49.2809 99.9037 49.6325C99.3177 49.984 98.6253 50.1598 97.8263 50.1598ZM97.8369 48.6151C98.2702 48.6151 98.6324 48.4961 98.9236 48.2582C99.2148 48.0167 99.4314 47.6935 99.5734 47.2887C99.719 46.8839 99.7918 46.4329 99.7918 45.9357C99.7918 45.435 99.719 44.9822 99.5734 44.5774C99.4314 44.169 99.2148 43.8441 98.9236 43.6026C98.6324 43.3612 98.2702 43.2404 97.8369 43.2404C97.393 43.2404 97.0237 43.3612 96.729 43.6026C96.4378 43.8441 96.2194 44.169 96.0738 44.5774C95.9317 44.9822 95.8607 45.435 95.8607 45.9357C95.8607 46.4329 95.9317 46.8839 96.0738 47.2887C96.2194 47.6935 96.4378 48.0167 96.729 48.2582C97.0237 48.4961 97.393 48.6151 97.8369 48.6151ZM103.383 53.0682V41.8182H105.28V43.1712H105.392C105.491 42.9723 105.631 42.761 105.812 42.5373C105.993 42.31 106.238 42.1165 106.547 41.9567C106.856 41.7933 107.251 41.7116 107.73 41.7116C108.362 41.7116 108.932 41.8732 109.44 42.1964C109.951 42.516 110.356 42.9901 110.654 43.6186C110.956 44.2436 111.107 45.0107 111.107 45.9197C111.107 46.8182 110.96 47.5817 110.665 48.2102C110.37 48.8388 109.969 49.3182 109.461 49.6484C108.953 49.9787 108.378 50.1438 107.735 50.1438C107.267 50.1438 106.878 50.0657 106.569 49.9094C106.26 49.7532 106.011 49.565 105.823 49.3448C105.638 49.1211 105.494 48.9098 105.392 48.7109H105.312V53.0682H103.383ZM105.274 45.9091C105.274 46.4382 105.349 46.9016 105.498 47.2994C105.651 47.6971 105.869 48.0078 106.153 48.2315C106.441 48.4517 106.789 48.5618 107.197 48.5618C107.623 48.5618 107.98 48.4482 108.268 48.2209C108.556 47.9901 108.772 47.6758 108.918 47.2781C109.067 46.8768 109.142 46.4205 109.142 45.9091C109.142 45.4013 109.069 44.9503 108.923 44.5561C108.778 44.1619 108.561 43.853 108.273 43.6293C107.986 43.4055 107.627 43.2937 107.197 43.2937C106.785 43.2937 106.436 43.402 106.148 43.6186C105.86 43.8352 105.642 44.1388 105.493 44.5295C105.347 44.9201 105.274 45.38 105.274 45.9091ZM114.617 47.3899L117.893 41.8182H119.875V50H118.01V44.4229L114.745 50H112.758V41.8182H114.617V47.3899ZM125.424 50.1598C124.607 50.1598 123.906 49.9805 123.32 49.6218C122.737 49.2631 122.288 48.7678 121.972 48.1357C121.66 47.5 121.503 46.7685 121.503 45.9411C121.503 45.1101 121.663 44.3768 121.983 43.7411C122.302 43.1019 122.753 42.6048 123.336 42.2496C123.922 41.891 124.614 41.7116 125.413 41.7116C126.077 41.7116 126.665 41.8342 127.176 42.0792C127.691 42.3207 128.101 42.6634 128.407 43.1072C128.712 43.5476 128.886 44.0625 128.929 44.652H127.086C127.011 44.2578 126.834 43.9293 126.553 43.6665C126.276 43.4002 125.905 43.267 125.44 43.267C125.046 43.267 124.699 43.3736 124.401 43.5866C124.103 43.7962 123.87 44.098 123.703 44.4922C123.54 44.8864 123.458 45.3587 123.458 45.9091C123.458 46.4666 123.54 46.946 123.703 47.3473C123.867 47.745 124.096 48.0522 124.391 48.2688C124.689 48.4819 125.039 48.5884 125.44 48.5884C125.724 48.5884 125.978 48.5352 126.202 48.4286C126.429 48.3185 126.619 48.1605 126.772 47.9545C126.924 47.7486 127.029 47.4982 127.086 47.2035H128.929C128.883 47.7823 128.712 48.2955 128.418 48.7429C128.123 49.1868 127.722 49.5348 127.214 49.7869C126.706 50.0355 126.109 50.1598 125.424 50.1598ZM129.918 43.4002V41.8182H137.077V43.4002H134.43V50H132.566V43.4002H129.918ZM139.811 53.0682C139.549 53.0682 139.305 53.0469 139.082 53.0043C138.861 52.9652 138.686 52.919 138.554 52.8658L139.002 51.3636C139.282 51.4453 139.533 51.4844 139.753 51.4808C139.973 51.4773 140.166 51.408 140.333 51.2731C140.504 51.1417 140.648 50.9215 140.765 50.6126L140.93 50.1705L137.963 41.8182H140.008L141.894 47.9972H141.979L143.87 41.8182H145.921L142.645 50.9908C142.492 51.424 142.29 51.7951 142.038 52.104C141.786 52.4165 141.477 52.6545 141.111 52.8178C140.749 52.9847 140.316 53.0682 139.811 53.0682ZM147.255 50V41.8182H150.691C151.661 41.8182 152.426 42.0117 152.987 42.3988C153.552 42.7859 153.834 43.3256 153.834 44.0181C153.834 44.4762 153.674 44.8509 153.354 45.142C153.038 45.4297 152.607 45.6232 152.06 45.7227C152.49 45.7582 152.866 45.8665 153.189 46.0476C153.516 46.2287 153.772 46.4666 153.956 46.7614C154.141 47.0561 154.233 47.3952 154.233 47.7788C154.233 48.2298 154.114 48.6222 153.877 48.956C153.642 49.2862 153.299 49.5437 152.848 49.7283C152.401 49.9094 151.858 50 151.218 50H147.255ZM149.061 48.4819H151.218C151.574 48.4819 151.852 48.3984 152.055 48.2315C152.257 48.0611 152.358 47.8303 152.358 47.5391C152.358 47.2017 152.257 46.9371 152.055 46.7454C151.852 46.5501 151.574 46.4524 151.218 46.4524H149.061V48.4819ZM149.061 45.206H150.728C150.991 45.206 151.217 45.1687 151.405 45.0941C151.593 45.016 151.737 44.9077 151.836 44.7692C151.936 44.6271 151.986 44.4585 151.986 44.2631C151.986 43.9826 151.87 43.7624 151.639 43.6026C151.412 43.4428 151.096 43.3629 150.691 43.3629H149.061V45.206ZM158.179 50.1651C157.661 50.1651 157.194 50.0728 156.778 49.8881C156.366 49.6999 156.04 49.4229 155.798 49.0572C155.56 48.6914 155.441 48.2404 155.441 47.7042C155.441 47.2425 155.526 46.8608 155.697 46.5589C155.867 46.2571 156.1 46.0156 156.395 45.8345C156.689 45.6534 157.021 45.5167 157.391 45.4244C157.764 45.3285 158.149 45.2592 158.547 45.2166C159.026 45.1669 159.415 45.1225 159.713 45.0835C160.012 45.0408 160.228 44.9769 160.363 44.8917C160.502 44.8029 160.571 44.6662 160.571 44.4815V44.4496C160.571 44.0483 160.452 43.7376 160.214 43.5174C159.976 43.2972 159.633 43.1871 159.186 43.1871C158.714 43.1871 158.339 43.2901 158.062 43.4961C157.789 43.7021 157.604 43.9453 157.508 44.2259L155.708 43.9702C155.85 43.473 156.084 43.0575 156.411 42.7237C156.737 42.3864 157.137 42.1342 157.609 41.9673C158.081 41.7969 158.604 41.7116 159.175 41.7116C159.569 41.7116 159.962 41.7578 160.352 41.8501C160.743 41.9425 161.1 42.0952 161.423 42.3082C161.746 42.5178 162.006 42.8036 162.201 43.1658C162.4 43.5281 162.499 43.9808 162.499 44.5241V50H160.645V48.8761H160.581C160.464 49.1033 160.299 49.3164 160.086 49.5153C159.877 49.7106 159.612 49.8686 159.292 49.9893C158.976 50.1065 158.605 50.1651 158.179 50.1651ZM158.68 48.7482C159.067 48.7482 159.403 48.6719 159.687 48.5192C159.971 48.3629 160.189 48.157 160.342 47.9013C160.498 47.6456 160.576 47.3668 160.576 47.065V46.1009C160.516 46.1506 160.413 46.1967 160.267 46.2393C160.125 46.282 159.965 46.3192 159.788 46.3512C159.61 46.3832 159.434 46.4116 159.26 46.4364C159.086 46.4613 158.936 46.4826 158.808 46.5004C158.52 46.5394 158.263 46.6033 158.035 46.6921C157.808 46.7809 157.629 46.9052 157.497 47.065C157.366 47.2212 157.3 47.4237 157.3 47.6722C157.3 48.0273 157.43 48.2955 157.689 48.4766C157.948 48.6577 158.279 48.7482 158.68 48.7482ZM170.058 45.1101V46.6921H165.7V45.1101H170.058ZM166.297 41.8182V50H164.438V41.8182H166.297ZM171.32 41.8182V50H169.466V41.8182H171.32ZM178.891 45.1101V46.6921H174.533V45.1101H178.891ZM175.13 41.8182V50H173.271V41.8182H175.13ZM180.153 41.8182V50H178.299V41.8182H180.153ZM186.941 50V43.3842H185.194C184.75 43.3842 184.409 43.4872 184.171 43.6932C183.933 43.8991 183.816 44.1548 183.819 44.4602C183.816 44.7656 183.928 45.0178 184.155 45.2166C184.382 45.4155 184.707 45.5149 185.13 45.5149H187.548V46.9212H185.13C184.476 46.9212 183.912 46.8182 183.436 46.6122C182.96 46.4062 182.594 46.1151 182.338 45.7386C182.083 45.3622 181.955 44.9219 181.955 44.4176C181.955 43.892 182.085 43.4357 182.344 43.0487C182.607 42.658 182.979 42.3562 183.462 42.1431C183.949 41.9265 184.526 41.8182 185.194 41.8182H188.746V50H186.941ZM181.657 50L183.942 45.8026H185.843L183.553 50H181.657Z" fill="#D6F4FF"/>
</svg>
