<svg width="38" height="38" viewBox="0 0 38 38" fill="none" xmlns="http://www.w3.org/2000/svg">
<circle cx="19" cy="19" r="19" fill="#D9D9D9"/>
<g clip-path="url(#clip0_18_6761)">
<path d="M19 9.98086C21.9391 9.98086 22.2871 9.99375 23.443 10.0453C24.5172 10.0926 25.0973 10.273 25.484 10.4234C25.9953 10.6211 26.3648 10.8617 26.7473 11.2441C27.134 11.6309 27.3703 11.9961 27.568 12.5074C27.7184 12.8941 27.8988 13.4785 27.9461 14.5484C27.9977 15.7086 28.0105 16.0566 28.0105 18.9914C28.0105 21.9305 27.9977 22.2785 27.9461 23.4344C27.8988 24.5086 27.7184 25.0887 27.568 25.4754C27.3703 25.9867 27.1297 26.3563 26.7473 26.7387C26.3605 27.1254 25.9953 27.3617 25.484 27.5594C25.0973 27.7098 24.5129 27.8902 23.443 27.9375C22.2828 27.9891 21.9348 28.002 19 28.002C16.0609 28.002 15.7129 27.9891 14.557 27.9375C13.4828 27.8902 12.9027 27.7098 12.516 27.5594C12.0047 27.3617 11.6352 27.1211 11.2527 26.7387C10.866 26.352 10.6297 25.9867 10.432 25.4754C10.2816 25.0887 10.1012 24.5043 10.0539 23.4344C10.0023 22.2742 9.98945 21.9262 9.98945 18.9914C9.98945 16.0523 10.0023 15.7043 10.0539 14.5484C10.1012 13.4742 10.2816 12.8941 10.432 12.5074C10.6297 11.9961 10.8703 11.6266 11.2527 11.2441C11.6395 10.8574 12.0047 10.6211 12.516 10.4234C12.9027 10.273 13.4871 10.0926 14.557 10.0453C15.7129 9.99375 16.0609 9.98086 19 9.98086ZM19 8C16.0137 8 15.6398 8.01289 14.4668 8.06445C13.298 8.11602 12.4945 8.30508 11.7984 8.57578C11.0723 8.85937 10.4578 9.2332 9.84766 9.84766C9.2332 10.4578 8.85938 11.0723 8.57578 11.7941C8.30508 12.4945 8.11602 13.2937 8.06445 14.4625C8.01289 15.6398 8 16.0137 8 19C8 21.9863 8.01289 22.3602 8.06445 23.5332C8.11602 24.702 8.30508 25.5055 8.57578 26.2016C8.85938 26.9277 9.2332 27.5422 9.84766 28.1523C10.4578 28.7625 11.0723 29.1406 11.7941 29.4199C12.4945 29.6906 13.2938 29.8797 14.4625 29.9312C15.6355 29.9828 16.0094 29.9957 18.9957 29.9957C21.982 29.9957 22.3559 29.9828 23.5289 29.9312C24.6977 29.8797 25.5012 29.6906 26.1973 29.4199C26.9191 29.1406 27.5336 28.7625 28.1438 28.1523C28.7539 27.5422 29.132 26.9277 29.4113 26.2059C29.682 25.5055 29.8711 24.7063 29.9227 23.5375C29.9742 22.3645 29.9871 21.9906 29.9871 19.0043C29.9871 16.018 29.9742 15.6441 29.9227 14.4711C29.8711 13.3023 29.682 12.4988 29.4113 11.8027C29.1406 11.0723 28.7668 10.4578 28.1523 9.84766C27.5422 9.2375 26.9277 8.85938 26.2059 8.58008C25.5055 8.30937 24.7063 8.12031 23.5375 8.06875C22.3602 8.01289 21.9863 8 19 8Z" fill="#4E87B8"/>
<path d="M19 13.3496C15.8805 13.3496 13.3496 15.8805 13.3496 19C13.3496 22.1195 15.8805 24.6504 19 24.6504C22.1195 24.6504 24.6504 22.1195 24.6504 19C24.6504 15.8805 22.1195 13.3496 19 13.3496ZM19 22.6652C16.9762 22.6652 15.3348 21.0238 15.3348 19C15.3348 16.9762 16.9762 15.3348 19 15.3348C21.0238 15.3348 22.6652 16.9762 22.6652 19C22.6652 21.0238 21.0238 22.6652 19 22.6652Z" fill="#4E87B8"/>
<path d="M26.193 13.1261C26.193 13.8566 25.6 14.4453 24.8738 14.4453C24.1434 14.4453 23.5547 13.8523 23.5547 13.1261C23.5547 12.3957 24.1477 11.807 24.8738 11.807C25.6 11.807 26.193 12.4 26.193 13.1261Z" fill="#4E87B8"/>
</g>
<defs>
<clipPath id="clip0_18_6761">
<rect width="22" height="22" fill="white" transform="translate(8 8)"/>
</clipPath>
</defs>
</svg>
