<svg width="38" height="38" viewBox="0 0 38 38" fill="none" xmlns="http://www.w3.org/2000/svg">
<circle cx="19" cy="19" r="19" fill="#D9D9D9"/>
<g clip-path="url(#clip0_18_6765)">
<path d="M23.2344 9H19.683V22.6232C19.683 24.2464 18.317 25.5797 16.6172 25.5797C14.9174 25.5797 13.5514 24.2464 13.5514 22.6232C13.5514 21.029 14.887 19.7246 16.5262 19.6667V16.2464C12.914 16.3043 10 19.1159 10 22.6232C10 26.1594 12.9747 29 16.6476 29C20.3204 29 23.2951 26.1304 23.2951 22.6232V15.6377C24.6307 16.5652 26.2698 17.1159 28 17.1449V13.7246C25.3289 13.6377 23.2344 11.5507 23.2344 9Z" fill="#4E87B8"/>
</g>
<defs>
<clipPath id="clip0_18_6765">
<rect width="18" height="20" fill="white" transform="translate(10 9)"/>
</clipPath>
</defs>
</svg>
