<svg width="38" height="38" viewBox="0 0 38 38" fill="none" xmlns="http://www.w3.org/2000/svg">
<path fill-rule="evenodd" clip-rule="evenodd" d="M19 0C15.2422 0 11.5687 1.11433 8.44418 3.20208C5.31965 5.28982 2.88435 8.25722 1.44628 11.729C0.00821696 15.2008 -0.368026 19.0211 0.365093 22.7067C1.09821 26.3924 2.90778 29.7778 5.56497 32.435C8.22217 35.0922 11.6076 36.9018 15.2933 37.6349C18.9789 38.368 22.7992 37.9918 26.271 36.5537C29.7428 35.1156 32.7102 32.6804 34.7979 29.5558C36.8857 26.4313 38 22.7578 38 19C38 13.9609 35.9982 9.12816 32.435 5.56497C28.8718 2.00178 24.0391 0 19 0ZM29.4992 14.9354C29.4992 15.1521 29.4992 15.3689 29.4992 15.5856C29.4992 22.2539 24.4326 29.9412 15.1437 29.9412C12.4013 29.9437 9.71614 29.1571 7.40859 27.6753C7.80839 27.7229 8.21071 27.7464 8.61334 27.7456C10.8849 27.7486 13.0915 26.9883 14.8791 25.5867C13.8265 25.5648 12.8069 25.2155 11.962 24.5875C11.117 23.9595 10.4887 23.0838 10.1643 22.0822C10.9211 22.2269 11.7008 22.197 12.4443 21.995C11.3047 21.7607 10.281 21.1399 9.54647 20.2377C8.81194 19.3354 8.41173 18.2071 8.4135 17.0437V16.979C9.11416 17.3685 9.89786 17.5847 10.6991 17.6095C9.63026 16.8965 8.87352 15.8027 8.58324 14.5511C8.29296 13.2995 8.49097 11.9843 9.13689 10.8736C10.4038 12.4327 11.9845 13.7078 13.7764 14.6161C15.5683 15.5244 17.5312 16.0456 19.5376 16.1458C19.449 15.7685 19.4046 15.3821 19.4053 14.9945C19.4061 13.9832 19.7108 12.9954 20.2797 12.1593C20.8487 11.3231 21.6557 10.6772 22.5962 10.3053C23.5366 9.93336 24.5672 9.85254 25.5541 10.0733C26.5411 10.2941 27.4389 10.8063 28.1312 11.5436C29.2614 11.3223 30.3449 10.9081 31.3345 10.3191C30.958 11.4879 30.1697 12.4802 29.1164 13.1114C30.1159 12.9917 31.092 12.7241 32.0129 12.3176C31.3394 13.3317 30.4912 14.218 29.5077 14.9354H29.4992Z" fill="#D9D9D9"/>
</svg>
