<svg width="38" height="38" viewBox="0 0 38 38" fill="none" xmlns="http://www.w3.org/2000/svg">
<circle cx="19" cy="19" r="19" fill="#D9D9D9"/>
<path d="M30.751 13.8839C30.751 13.8839 30.5068 12.1194 29.7549 11.3446C28.8027 10.3249 27.7383 10.3199 27.25 10.2599C23.7539 10 18.5049 10 18.5049 10H18.4951C18.4951 10 13.2461 10 9.75 10.2599C9.26172 10.3199 8.19727 10.3249 7.24512 11.3446C6.49316 12.1194 6.25391 13.8839 6.25391 13.8839C6.25391 13.8839 6 15.9583 6 18.0278V19.9672C6 22.0367 6.24902 24.1111 6.24902 24.1111C6.24902 24.1111 6.49316 25.8756 7.24023 26.6504C8.19238 27.6701 9.44238 27.6351 9.99902 27.7451C12.001 27.94 18.5 28 18.5 28C18.5 28 23.7539 27.99 27.25 27.7351C27.7383 27.6751 28.8027 27.6701 29.7549 26.6504C30.5068 25.8756 30.751 24.1111 30.751 24.1111C30.751 24.1111 31 22.0417 31 19.9672V18.0278C31 15.9583 30.751 13.8839 30.751 13.8839ZM15.917 22.3216V15.1286L22.6699 18.7376L15.917 22.3216Z" fill="#4E87B8"/>
</svg>
